<?xml version="1.0" encoding="UTF-8" standalone="no"?>
<svg
   width="98"
   height="96"
   version="1.1"
   id="svg1"
   sodipodi:docname="github-mark-white.svg"
   xmlns:inkscape="http://www.inkscape.org/namespaces/inkscape"
   xmlns:sodipodi="http://sodipodi.sourceforge.net/DTD/sodipodi-0.dtd"
   xmlns="http://www.w3.org/2000/svg"
   xmlns:svg="http://www.w3.org/2000/svg">
  <defs
     id="defs1" />
  <sodipodi:namedview
     id="namedview1"
     pagecolor="#505050"
     bordercolor="#ffffff"
     borderopacity="1"
     inkscape:showpageshadow="0"
     inkscape:pageopacity="0"
     inkscape:pagecheckerboard="1"
     inkscape:deskcolor="#505050" />
  <path
     fill-rule="evenodd"
     clip-rule="evenodd"
     d="M 48.854,0 C 21.839,0 0,22 0,49.217 c 0,21.756 13.993,40.172 33.405,46.69 2.427,0.49 3.316,-1.059 3.316,-2.362 0,-1.141 -0.08,-5.052 -0.08,-9.127 -13.59,2.934 -16.42,-5.867 -16.42,-5.867 -2.184,-5.704 -5.42,-7.17 -5.42,-7.17 -4.448,-3.015 0.324,-3.015 0.324,-3.015 4.934,0.326 7.523,5.052 7.523,5.052 4.367,7.496 11.404,5.378 14.235,4.074 0.404,-3.178 1.699,-5.378 3.074,-6.6 -10.839,-1.141 -22.243,-5.378 -22.243,-24.283 0,-5.378 1.94,-9.778 5.014,-13.2 -0.485,-1.222 -2.184,-6.275 0.486,-13.038 0,0 4.125,-1.304 13.426,5.052 a 46.97,46.97 0 0 1 12.214,-1.63 c 4.125,0 8.33,0.571 12.213,1.63 9.302,-6.356 13.427,-5.052 13.427,-5.052 2.67,6.763 0.97,11.816 0.485,13.038 3.155,3.422 5.015,7.822 5.015,13.2 0,18.905 -11.404,23.06 -22.324,24.283 1.78,1.548 3.316,4.481 3.316,9.126 0,6.6 -0.08,11.897 -0.08,13.526 0,1.304 0.89,2.853 3.316,2.364 C 83.634,89.388 97.627,70.973 97.627,49.217 97.707,22 75.788,0 48.854,0 Z"
     fill="#fff"
     id="path1"
     style="fill:#000000;fill-opacity:1" />
  <path
     style="fill:#000000;fill-opacity:1"
     d="M 32.750903,95.607331 C 28.807971,94.218413 24.520876,92.011087 21.004129,89.559188 17.190447,86.900265 13.078851,82.944463 10.131891,79.098914 1.7730361,68.191272 -1.62062,53.944514 0.8802305,40.259928 3.6728303,24.978897 13.537919,11.896753 27.415055,5.071959 33.854178,1.9051898 40.364531,0.29944206 47.595668,0.09450624 56.819923,-0.16691606 65.954197,2.2436229 73.842267,7.020995 90.586105,17.161822 99.66022,36.057344 97.155229,55.566834 95.221061,70.630603 86.426466,83.938167 73.271156,91.707083 c -3.410898,2.014317 -8.602212,4.235155 -9.899877,4.235155 -0.913602,0 -1.706277,-0.452276 -2.125937,-1.212996 -0.171282,-0.310482 -0.198114,-1.236753 -0.25768,-8.895307 -0.06335,-8.145444 -0.07784,-8.59506 -0.307047,-9.530686 -0.481544,-1.965646 -1.111151,-3.309709 -2.165717,-4.623285 l -0.604723,-0.75325 1.471133,-0.204733 c 12.54471,-1.745804 18.900557,-7.766444 20.401004,-19.32505 0.133159,-1.025777 0.195244,-2.373644 0.19904,-4.321119 0.0048,-2.441209 -0.02954,-3.019811 -0.249451,-4.208599 -0.603816,-3.264028 -2.108094,-6.492373 -4.112606,-8.826104 -0.290974,-0.338762 -0.529042,-0.655534 -0.529042,-0.703936 0,-0.0484 0.09696,-0.369838 0.215476,-0.714302 0.658036,-1.912612 0.867295,-5.719542 0.440645,-8.016373 -0.234916,-1.264643 -0.672463,-2.916267 -0.979177,-3.696125 -0.212416,-0.540096 -0.259207,-0.582699 -0.73172,-0.666244 -0.277635,-0.04909 -0.972661,-0.03473 -1.544502,0.03191 -2.81954,0.32858 -6.21313,1.731015 -9.946647,4.11055 -1.436289,0.91541 -1.53345,0.958734 -1.906137,0.849921 -0.215987,-0.06306 -1.250465,-0.291352 -2.298841,-0.507314 -5.223199,-1.07596 -10.348855,-1.263151 -15.653429,-0.571669 -1.426185,0.185911 -4.256176,0.724878 -5.360164,1.020834 L 36.702055,25.345563 35.017814,24.2904 c -2.833563,-1.775206 -5.59121,-3.063595 -7.812038,-3.649833 -1.158663,-0.305855 -2.769869,-0.49168 -3.506598,-0.404425 l -0.562932,0.06667 -0.424796,1.343178 c -0.68219,2.157042 -0.882173,3.312058 -0.952634,5.502022 -0.0703,2.184892 0.07876,3.535141 0.580262,5.256318 l 0.286112,0.98195 -0.308985,0.385512 c -2.689955,3.356181 -4.034687,6.479263 -4.534622,10.531455 -0.172043,1.394482 -0.07249,5.444633 0.180191,7.33116 0.559702,4.178671 1.750638,7.556385 3.655047,10.366389 1.015676,1.498655 3.187512,3.651807 4.664767,4.624634 3.153316,2.076578 6.856724,3.365642 11.610109,4.041192 0.984837,0.139964 1.810249,0.267769 1.834247,0.284012 0.024,0.01624 -0.198527,0.298873 -0.494502,0.628067 -1.013688,1.127465 -1.936334,3.177346 -2.266442,5.035446 l -0.147591,0.830757 -0.54106,0.232757 c -2.581229,1.110416 -5.63312,1.339215 -7.877443,0.590569 -2.278006,-0.759881 -3.860195,-2.095271 -5.571567,-4.702486 -1.874114,-2.855145 -3.766519,-4.367473 -6.264558,-5.006364 -2.085857,-0.533472 -3.944094,-0.02235 -3.685714,1.013783 0.106315,0.426338 0.94445,1.212325 2.159172,2.024828 1.786823,1.195173 3.323726,3.086884 4.432801,5.456159 1.309318,2.797043 1.57127,3.274866 2.216528,4.04315 1.539004,1.83243 3.666001,3.032268 6.502158,3.667863 1.558827,0.34934 4.989869,0.342613 6.971768,-0.01367 0.752885,-0.135345 1.389708,-0.246081 1.415162,-0.246081 0.02546,0 0.04514,2.170397 0.04375,4.823105 -0.0023,4.442027 -0.01939,4.859615 -0.215807,5.285198 -0.593182,1.285251 -1.851669,1.627681 -3.651692,0.993613 z"
     id="path2" />
  <path
     style="fill:#000000;fill-opacity:1;stroke-width:0.0102109"
     d="m 63.19033,95.991968 c -0.382996,-0.0293 -0.648397,-0.08825 -0.923051,-0.205003 -0.743505,-0.316065 -1.226794,-1.012934 -1.340714,-1.933218 -0.0163,-0.131658 -0.0147,-0.86089 0.0073,-3.323657 0.0085,-0.949106 0.01978,-2.237421 0.02511,-2.862922 0.0053,-0.625501 0.01217,-1.139749 0.01519,-1.142773 0.003,-0.003 0.0073,-0.0036 0.0095,-0.0012 0.0022,0.0023 0.0092,0.601593 0.01554,1.331675 0.04742,5.443085 0.08078,6.484213 0.218782,6.825857 0.01369,0.03389 0.04953,0.100943 0.07964,0.149002 0.38026,0.60686 0.973327,0.986298 1.708923,1.093351 0.08743,0.01273 0.185417,0.01775 0.342066,0.01755 0.193378,-2.51e-4 0.237784,-0.0036 0.372699,-0.02794 1.227916,-0.221703 3.846702,-1.257713 6.54934,-2.590966 0.26061,-0.128563 0.4757,-0.233751 0.477977,-0.233751 0.0023,0 0.0027,0.01723 9.71e-4,0.03829 l -0.0032,0.03829 -0.326773,0.163374 c -1.890367,0.945114 -3.816739,1.752992 -5.870325,2.461885 -0.36134,0.124734 -0.455181,0.146644 -0.782071,0.182603 -0.138466,0.01523 -0.481616,0.02689 -0.576917,0.0196 z"
     id="path3" />
  <path
     style="fill:#000000;fill-opacity:1;stroke-width:0.353553"
     d="M 29.962579,94.242902 C 19.337155,89.587725 10.552158,81.312815 5.4234836,71.128628 3.5789867,67.465945 1.540831,60.956688 0.86448259,56.568543 0.14598789,51.906952 0.32770199,43.592635 1.2392473,39.421203 5.3221064,20.73715 19.094663,6.2738024 37.09654,1.7654112 53.945137,-2.4541522 71.227665,2.5089935 83.521862,15.097701 c 6.081242,6.22692 10.290801,13.858263 12.523222,22.702856 1.218702,4.828344 1.552393,13.996256 0.692954,19.038259 -2.443468,14.334844 -10.522262,26.491487 -22.671081,34.114523 -2.947412,1.849413 -8.682486,4.418742 -10.260137,4.596565 -2.548989,0.287308 -2.642083,-0.05897 -2.642083,-9.827706 0,-9.029955 -0.275199,-10.88902 -1.983806,-13.401264 l -0.854701,-1.256702 2.391527,-0.404027 c 6.301612,-1.064606 9.854537,-2.724992 13.302435,-6.216618 3.872439,-3.921557 5.64849,-8.414411 6.109354,-15.454762 0.37063,-5.661861 -0.820913,-10.191516 -3.756551,-14.280568 -0.983367,-1.369735 -1.030672,-1.574487 -0.667293,-2.888452 0.510149,-1.844698 0.196894,-8.403854 -0.489675,-10.253048 -0.520714,-1.402487 -0.539753,-1.413836 -2.296135,-1.368727 -2.415247,0.06203 -5.755089,1.232459 -9.093807,3.186868 l -2.789123,1.632689 -3.220026,-0.575152 C 51.349175,23.28718 46.238904,23.32765 39.06765,24.590918 l -2.474874,0.435967 -2.12132,-1.289173 c -3.125859,-1.899652 -6.77965,-3.32129 -9.254404,-3.600755 L 23.033715,19.8904 22.453027,21.789238 c -0.813244,2.659295 -1.067165,6.927065 -0.564236,9.483404 0.403502,2.05096 0.384849,2.185638 -0.455301,3.287412 -1.345947,1.765075 -2.920756,5.175161 -3.408903,7.381628 -0.291532,1.31775 -0.380199,3.64708 -0.262434,6.894291 0.144979,3.9976 0.348976,5.432107 1.103564,7.760292 2.605971,8.04038 8.972885,12.90128 18.522554,14.141273 1.020886,0.132557 1.856155,0.293 1.856155,0.356541 0,0.06354 -0.383266,0.6803 -0.851703,1.370581 -0.468433,0.690278 -1.059723,2.066718 -1.313974,3.058757 -0.508194,1.982868 -0.843207,2.218024 -4.019256,2.821253 -2.340786,0.44459 -5.018174,-0.12677 -6.865775,-1.465164 -0.789334,-0.571791 -2.258305,-2.171352 -3.26438,-3.55458 -1.006075,-1.383228 -2.451928,-2.966041 -3.213006,-3.517365 -1.74719,-1.265657 -4.657508,-1.959672 -6.016138,-1.434649 -1.533044,0.592425 -1.237469,1.589219 0.950541,3.205595 2.314582,1.709883 3.173862,2.821207 5.146678,6.656311 1.743226,3.388781 3.44544,5.030895 6.336181,6.112457 1.676421,0.627232 2.592968,0.720202 6.127331,0.621547 l 4.156036,-0.116008 -4.81e-4,4.806562 c -4.21e-4,4.207137 -0.08111,4.879535 -0.647038,5.391689 -0.976115,0.883371 -2.397446,0.685561 -5.806863,-0.808163 z"
     id="path6" />
  <path
     style="fill:#000000;fill-opacity:1"
     d="M 30.368739,94.453687 C 24.124141,91.727133 19.250269,88.406793 14.484563,83.632545 7.4203623,76.555679 2.747595,67.474653 1.0406254,57.505682 -3.4727581,31.146806 13.861076,6.1462588 40.209662,1.0122735 c 4.296593,-0.8371857 12.96853,-0.8345286 17.229937,0.00528 10.043144,1.9792325 18.35977,6.4068485 25.648743,13.6549135 6.309782,6.274367 10.661452,14.041507 12.957898,23.128091 1.19978,4.747288 1.549571,14.257238 0.70332,19.121539 -2.485349,14.285908 -10.587679,26.442025 -22.682603,34.031243 -2.947412,1.849413 -8.682486,4.418742 -10.260137,4.596565 -2.541812,0.286498 -2.642083,-0.07938 -2.642083,-9.640818 0,-8.905833 -0.322667,-11.145717 -1.950332,-13.538722 l -0.888398,-1.306132 2.618187,-0.440337 C 73.126728,68.574996 79.378185,61.460703 80.129705,48.790368 80.450141,43.387917 79.417372,39.300376 76.70607,35.240176 75.453752,33.364814 75.35626,33.057141 75.6689,31.967028 76.619453,28.652653 75.61194,20.586007 74.1911,20.135051 72.503233,19.599343 67.47424,21.216115 63.501565,23.571632 l -2.436142,1.444461 -3.574265,-0.648717 C 52.632001,23.485455 45.567114,23.48183 40.481863,24.358649 L 36.592776,25.02922 34.786982,23.917369 C 30.225274,21.108664 23.719356,19.140251 22.970383,20.34217 c -1.170306,1.878053 -1.725725,7.99639 -1.023257,11.271888 0.352587,1.644054 0.316739,1.858375 -0.490782,2.934218 -1.249807,1.665091 -2.561762,4.403387 -3.259253,6.802671 -0.945693,3.253069 -0.586101,11.394368 0.6746,15.273241 2.531921,7.7901 8.488043,12.495825 17.679518,13.967968 1.384041,0.221675 2.564078,0.439697 2.622305,0.484496 0.05822,0.0448 -0.285268,0.657814 -0.763315,1.362255 -0.478046,0.704445 -1.077199,2.092471 -1.33145,3.08451 -0.508194,1.982868 -0.843207,2.218024 -4.019256,2.821253 -2.340786,0.44459 -5.018174,-0.12677 -6.865775,-1.465164 -0.789334,-0.571791 -2.247282,-2.156198 -3.239885,-3.520904 -0.992604,-1.364705 -2.495666,-2.956657 -3.340139,-3.537669 -1.934482,-1.330959 -4.561701,-1.975162 -5.9135,-1.450011 -1.532549,0.59537 -1.237433,1.591234 0.950541,3.207585 2.300457,1.69945 3.242485,2.898703 4.928808,6.27465 1.663231,3.329716 3.005839,4.808754 5.458541,6.013211 1.891458,0.928848 2.282268,0.986446 6.693023,0.986446 h 4.684274 l 3.07e-4,4.806562 c 2.72e-4,4.207752 -0.08024,4.879461 -0.646246,5.391689 -0.961442,0.870095 -2.40563,0.710352 -5.400703,-0.597378 z"
     id="path7" />
  <path
     style="fill:#000000;fill-opacity:1;stroke-width:0.353553"
     d="M 31.112698,94.792614 C 17.897648,89.262802 7.8153702,78.778434 3.1944132,65.760931 1.3273372,60.501269 0.6911064,57.078342 0.46719273,51.088465 0.30784336,46.825735 0.39819134,44.744462 0.8739079,41.7193 4.1043066,21.176644 19.734191,5.0018906 40.209662,1.0122735 44.490374,0.17818264 53.179252,0.17784683 57.407878,1.0116088 67.492872,3.0000766 75.820271,7.4289901 83.093504,14.672466 c 6.309496,6.283685 10.661569,14.055332 12.95158,23.128091 1.244228,4.929482 1.553478,14.00717 0.659469,19.358006 -2.07194,12.401016 -8.914937,23.656523 -19.002127,31.255099 -3.99894,3.012356 -11.455257,6.861177 -13.805319,7.126067 -2.525885,0.284702 -2.530057,0.268909 -2.73237,-10.341232 l -0.176777,-9.27088 -1.263374,-2.46163 -1.263373,-2.461633 2.664481,-0.447712 C 73.03578,68.555395 79.267696,61.497024 80.10113,49.06475 80.466959,43.607682 79.404397,39.280945 76.70607,35.240176 75.453752,33.364814 75.35626,33.057141 75.6689,31.967028 76.454507,29.227786 75.886081,22.591513 74.706433,20.73035 74.22549,19.971554 74.012032,19.915735 72.405991,20.128783 c -2.37456,0.314997 -5.746409,1.618759 -8.802358,3.40353 l -2.513249,1.467815 -3.763522,-0.638141 C 52.288263,23.507644 45.490368,23.500228 40.481863,24.343609 l -3.889087,0.654883 -2.810331,-1.622046 c -3.151031,-1.818688 -6.273059,-2.962849 -8.949581,-3.279844 l -1.797175,-0.212848 -0.570437,1.902161 c -0.82271,2.743386 -1.076044,6.947396 -0.572793,9.505369 0.408974,2.078778 0.390936,2.217088 -0.42957,3.293752 -1.245457,1.634282 -2.574601,4.388279 -3.266415,6.768032 -0.76296,2.624491 -0.563234,10.867931 0.342655,14.14261 2.314111,8.365228 8.314638,13.418168 17.87687,15.053805 1.458408,0.249463 2.699288,0.488455 2.757515,0.531097 0.05822,0.04264 -0.285268,0.653886 -0.763315,1.358327 -0.478046,0.704445 -1.077199,2.092471 -1.33145,3.08451 -0.508194,1.982868 -0.843207,2.218024 -4.019256,2.821253 -2.326628,0.441899 -5.015559,-0.124875 -6.830745,-1.439789 -0.770068,-0.557833 -2.313606,-2.227977 -3.430085,-3.711431 -2.888033,-3.837299 -6.565601,-5.777469 -9.114332,-4.808442 -1.261599,0.479658 -1.208788,1.292789 0.15886,2.44596 3.253524,2.743302 3.87681,3.473372 5.263919,6.165748 2.06778,4.013566 3.501145,5.677074 5.911089,6.860184 1.91473,0.939996 2.291652,0.995914 6.712908,0.995914 h 4.684274 l 3.07e-4,4.806562 c 2.72e-4,4.207752 -0.08024,4.879461 -0.646246,5.391689 -0.877453,0.794084 -2.334691,0.713205 -4.656744,-0.258451 z"
     id="path9" />
  <path
     style="fill:#000000;fill-opacity:1;stroke-width:0.353553"
     d="M 31.112698,94.792614 C 17.498106,89.095614 7.1040706,77.982296 2.7018222,64.41566 0.89406207,58.844592 0.53787304,56.332164 0.53673654,49.143921 0.53560344,41.977122 0.72361426,40.609839 2.529992,34.648232 7.6191633,17.85239 22.044664,4.7056075 39.161812,1.2635627 48.572865,-0.62888299 58.245853,0.27095363 67.042099,3.8571466 82.471717,10.147738 93.838561,24.377623 96.687971,40.970117 c 0.310979,1.810879 0.539211,5.270601 0.539211,8.173804 0,2.903204 -0.228232,6.362925 -0.539211,8.173805 -2.118934,12.338822 -8.960188,23.54394 -18.985545,31.095936 -3.99894,3.012356 -11.455257,6.861177 -13.805319,7.126067 -2.525885,0.284702 -2.530057,0.268909 -2.73237,-10.341232 L 60.98796,75.927617 59.724586,73.465987 58.461213,71.004354 61.1388,70.555362 C 73.006597,68.565306 79.148605,61.55717 80.12187,48.895359 80.509322,43.85471 79.345834,39.19325 76.718042,35.258101 c -1.26505,-1.894429 -1.345345,-2.159532 -1.045603,-3.452257 0.778334,-3.356829 0.07244,-10.129382 -1.187052,-11.388873 -1.065125,-1.065125 -6.466682,0.525416 -11.194554,3.296346 l -2.196669,1.287431 -3.765411,-0.632974 c -5.082493,-0.854377 -11.85957,-0.853695 -16.867785,0.0017 l -3.909979,0.667817 -2.45398,-1.455059 c -3.068696,-1.819546 -6.648241,-3.178716 -9.144097,-3.472055 l -1.917535,-0.225369 -0.567212,1.901636 c -0.815878,2.735312 -1.058226,6.544478 -0.588125,9.243997 l 0.406855,2.336336 -1.409108,2.180163 c -2.689518,4.16121 -3.014164,5.437304 -3.009425,11.829217 0.0032,4.274224 0.155354,6.212305 0.622643,7.929411 2.291052,8.418718 8.368839,13.583376 17.93436,15.239905 1.453256,0.25167 2.699415,0.501961 2.769242,0.556203 0.06983,0.05424 -0.230718,0.600935 -0.66788,1.214869 -0.437158,0.613935 -1.070054,2.005751 -1.406428,3.092924 -0.548786,1.773672 -0.752521,2.027618 -1.983774,2.4727 -0.754697,0.272812 -2.407697,0.513925 -3.673333,0.53581 -3.002079,0.05191 -5.151717,-0.962358 -7.16935,-3.382735 -4.292994,-5.149926 -5.678367,-6.260939 -8.428701,-6.759471 -1.483486,-0.268902 -3.137219,0.245334 -3.137219,0.975532 0,0.276471 1.088107,1.467352 2.418015,2.646403 1.926969,1.708388 2.770606,2.809785 4.154252,5.423513 1.985981,3.751544 3.49811,5.429795 5.993796,6.65227 1.583199,0.775508 2.206187,0.859612 6.436778,0.868967 l 4.683928,0.01036 6.54e-4,4.806562 c 5.73e-4,4.20802 -0.07986,4.879425 -0.645903,5.391689 -0.877453,0.794084 -2.334691,0.713205 -4.656744,-0.258451 z"
     id="path10" />
  <path
     style="fill:#000000;fill-opacity:1"
     d="m 20.679687,8.9885918 c 0,-0.0017 0.102258,-0.074587 0.261719,-0.1865496 0.599954,-0.4212465 1.289479,-0.8811551 1.914063,-1.2766666 2.037457,-1.2902007 4.163643,-2.4258565 6.347656,-3.3904627 0.242052,-0.1069063 0.239109,-0.105616 0.240848,-0.105616 8.69e-4,0 0.0011,0.021499 4.83e-4,0.047775 l -0.0011,0.047775 -0.07422,0.032721 C 28.37763,4.5947 27.32913,5.0987401 26.367182,5.6006816 c -1.86706,0.9742267 -3.716621,2.099751 -5.426725,3.3023578 l -0.123991,0.087195 h -0.06839 c -0.03761,0 -0.06839,-7.391e-4 -0.06839,-0.00164 z"
     id="path11" />
  <path
     style="fill:#000000;fill-opacity:1;stroke-width:0.00390625"
     d="m 22.299312,23.061523 c 0.0078,-0.03246 0.0695,-0.259268 0.101721,-0.374023 0.103634,-0.369055 0.18824,-0.647674 0.40093,-1.320313 0.06318,-0.199804 0.16463,-0.520671 0.225447,-0.713037 l 0.110575,-0.349755 0.09019,-0.01049 c 0.0496,-0.0058 0.186898,-0.02195 0.3051,-0.03596 0.27116,-0.03213 0.337326,-0.03707 0.535087,-0.03991 0.73706,-0.01062 1.870657,0.128379 2.8125,0.344859 0.461557,0.106088 1.064276,0.284592 1.619141,0.479533 l 0.115234,0.04049 0.0012,0.02593 c 6.36e-4,0.01426 -4.62e-4,0.02593 -0.0024,0.02593 -0.002,0 -0.01129,-0.0028 -0.02069,-0.0062 -0.07848,-0.02849 -0.371368,-0.127575 -0.494225,-0.167206 -1.028564,-0.331797 -1.959922,-0.543842 -2.823648,-0.642867 -0.717437,-0.08225 -1.406269,-0.07811 -1.889351,0.01137 -0.06001,0.01112 -0.169572,0.03636 -0.173093,0.03988 -0.0057,0.0057 -0.161132,0.415748 -0.234873,0.619611 -0.235103,0.649961 -0.470792,1.414137 -0.61471,1.993076 -0.02429,0.09773 -0.02031,0.08984 -0.04538,0.08984 -0.02121,0 -0.02125,-2.3e-5 -0.01867,-0.01074 z"
     id="path12" />
  <path
     style="fill:#000000;fill-opacity:1;stroke-width:0.00390625"
     d="m 21.80337,26.209961 c 7.92e-4,-0.0102 0.005,-0.07217 0.0093,-0.137695 0.06833,-1.035113 0.200352,-1.880482 0.444728,-2.847657 l 0.038,-0.15039 0.02238,-6.61e-4 c 0.01925,-5.67e-4 0.02211,2.53e-4 0.02043,0.0059 -0.0011,0.0036 -0.01619,0.06541 -0.03359,0.137379 -0.214679,0.88785 -0.362454,1.73504 -0.454813,2.607422 -0.01396,0.131871 -0.03731,0.379295 -0.03731,0.395358 0,0.0049 -0.0024,0.0089 -0.0053,0.0089 -0.0039,0 -0.0049,-0.0049 -0.0038,-0.01855 z"
     id="path13" />
  <path
     style="fill:#000000;fill-opacity:1;stroke-width:0.00390625"
     d="m 21.815295,34.418945 c 0.0021,-0.0027 0.04131,-0.0541 0.08721,-0.114258 0.138869,-0.182001 0.291791,-0.376557 0.512511,-0.652041 0.115463,-0.144112 0.209945,-0.264955 0.209961,-0.26854 1.5e-5,-0.0036 -0.06135,-0.217159 -0.136377,-0.474609 -0.169133,-0.580405 -0.195189,-0.670875 -0.232684,-0.807935 -0.23338,-0.853082 -0.374539,-1.620689 -0.447167,-2.43164 -0.01398,-0.156116 -0.02431,-0.298696 -0.03757,-0.518555 l -0.0026,-0.04395 h 0.01417 c 0.01266,0 0.01417,0.0011 0.01417,0.01015 0,0.01776 0.02295,0.281061 0.03517,0.403428 0.110742,1.109251 0.323393,2.170522 0.629006,3.139161 0.06821,0.216175 0.159054,0.476572 0.230784,0.661482 0.01695,0.0437 0.03082,0.08188 0.03082,0.08486 0,0.003 -0.02864,0.03753 -0.06365,0.0768 -0.243539,0.273173 -0.510574,0.590087 -0.730826,0.86734 l -0.05815,0.07319 h -0.02924 c -0.02279,0 -0.02842,-0.0011 -0.02549,-0.0049 z"
     id="path14" />
  <path
     style="fill:#000000;fill-opacity:1;stroke-width:0.00390625"
     d="m 19.816406,37.546204 c 0,-0.003 0.07249,-0.140886 0.130064,-0.247376 0.494636,-0.914906 1.058407,-1.791202 1.755968,-2.729385 l 0.108109,-0.145401 0.02832,-1.07e-4 c 0.01558,-5.9e-5 0.02832,8.22e-4 0.02832,0.002 0,0.0011 -0.019,0.02618 -0.04223,0.05566 -0.161441,0.204899 -0.411869,0.540726 -0.573032,0.768444 -0.490783,0.693461 -0.926319,1.400803 -1.319263,2.142578 -0.02902,0.05479 -0.05916,0.112354 -0.06698,0.12793 l -0.01422,0.02832 h -0.01753 c -0.0096,0 -0.01753,-0.0012 -0.01753,-0.0026 z"
     id="path15" />
  <path
     style="fill:#000000;fill-opacity:1;stroke-width:0.00390625"
     d="m 18.171875,42.053221 c 0,-0.0021 0.0087,-0.04132 0.01932,-0.08713 0.223517,-0.963408 0.492107,-1.829537 0.838031,-2.702421 0.209108,-0.527651 0.454547,-1.070609 0.70587,-1.561524 l 0.07849,-0.15332 h 0.01805 0.01805 l -0.113505,0.227539 c -0.150109,0.300919 -0.237272,0.485039 -0.359214,0.758789 -0.360566,0.809444 -0.663275,1.64418 -0.910144,2.509766 -0.07697,0.269885 -0.153958,0.566683 -0.222406,0.857422 l -0.03586,0.152343 -0.01834,0.0012 c -0.01024,6.65e-4 -0.01834,-5.08e-4 -0.01834,-0.0027 z"
     id="path16" />
  <path
     style="fill:#000000;fill-opacity:1;stroke-width:0.00552427"
     d="m 17.979104,43.18047 c 0.0085,-0.17305 0.02451,-0.30964 0.05464,-0.46533 0.04768,-0.246314 0.132611,-0.649443 0.137952,-0.654785 0.0012,-0.0012 0.0094,-0.0013 0.01842,-3.21e-4 l 0.01633,0.0018 -0.02394,0.107723 c -0.01317,0.05925 -0.04499,0.212132 -0.07071,0.339743 -0.04098,0.20335 -0.06331,0.322837 -0.121783,0.651864 l -0.01375,0.07734 z"
     id="path17" />
  <path
     style="fill:#000000;fill-opacity:1;stroke-width:0.00390625"
     d="m 17.973641,43.253906 c 4.4e-5,-0.0086 8.44e-4,-0.01165 0.0018,-0.0068 9.34e-4,0.0049 8.99e-4,0.01189 -7.9e-5,0.01563 -9.78e-4,0.0037 -0.0017,-2.41e-4 -0.0017,-0.0088 z"
     id="path18" />
  <path
     style="fill:#000000;fill-opacity:1;stroke-width:0.00390625"
     d="m 17.982821,43.154297 c 0.0055,-0.116835 0.02078,-0.255485 0.04064,-0.369583 0.01991,-0.114374 0.109234,-0.549772 0.142762,-0.695847 0.0061,-0.0264 0.0072,-0.02832 0.01682,-0.02826 0.02005,1.16e-4 0.02104,0.0033 0.0124,0.0404 -0.03705,0.158879 -0.12326,0.592233 -0.173801,0.873606 -0.02065,0.114942 -0.03826,0.211621 -0.03915,0.214844 -8.87e-4,0.0032 -7.38e-4,-0.0126 3.3e-4,-0.03516 z"
     id="path19" />
  <path
     style="fill:#000000;fill-opacity:1;stroke-width:0.00390625"
     d="m 18.177573,42.038086 c 0.0056,-0.03066 0.06639,-0.285564 0.103878,-0.435376 0.09626,-0.384674 0.208825,-0.783313 0.316616,-1.121265 l 0.02336,-0.07324 h 0.01741 c 0.0096,0 0.01739,0.0013 0.01736,0.0029 -2.8e-5,0.0016 -0.0071,0.0249 -0.01568,0.05176 -0.162506,0.50773 -0.283095,0.949506 -0.431571,1.581054 -0.0017,0.0073 -0.0047,0.0088 -0.01805,0.0088 h -0.01599 z"
     id="path20" />
  <path
     style="fill:#000000;fill-opacity:1;stroke-width:0.015625"
     d="m 60.823047,77.460937 c -0.0071,-0.05586 -0.03316,-0.224609 -0.05793,-0.375 -0.205472,-1.24735 -0.546081,-2.379187 -1.013915,-3.369216 -0.49376,-1.044894 -1.085427,-1.887812 -1.823279,-2.597534 l -0.2275,-0.218826 0.05213,-0.0084 c 0.02867,-0.0046 0.263071,-0.03354 0.520883,-0.06422 6.111749,-0.727385 10.712224,-2.355129 14.101563,-4.989426 1.277472,-0.99289 2.4429,-2.188718 3.371645,-3.459591 0.099,-0.135471 0.183292,-0.243021 0.187313,-0.239 0.0139,0.0139 -0.359517,0.522573 -0.660242,0.899374 -0.460319,0.57677 -1.253408,1.421338 -1.812779,1.93045 -2.346182,2.135376 -5.414525,3.72688 -9.15625,4.74921 -1.84036,0.502831 -3.261799,0.771773 -6.199218,1.172917 -0.109571,0.01496 -0.199219,0.0315 -0.199219,0.03674 0,0.0052 0.155301,0.202799 0.345113,0.439015 0.189811,0.236217 0.41525,0.523012 0.500973,0.637323 0.783737,1.045103 1.323699,2.170928 1.740088,3.628099 0.200739,0.702496 0.283957,1.093871 0.328782,1.546271 0.02601,0.2625 0.02745,0.483657 0.0018,0.281854 z"
     id="path26" />
  <path
     style="fill:#000000;fill-opacity:1;stroke-width:0.00390625"
     d="m 60.633218,76.106425 c -0.03784,-0.14962 -0.09659,-0.366145 -0.143161,-0.527616 -0.429991,-1.490878 -0.984531,-2.619003 -1.823521,-3.709668 -0.05581,-0.07256 -0.259733,-0.328014 -0.597909,-0.749024 -0.08499,-0.10581 -0.153745,-0.192383 -0.152782,-0.192383 9.62e-4,0 0.03971,-0.0053 0.08611,-0.01172 l 0.08436,-0.01172 h 3.392391 3.392391 v 2.658203 2.658203 l -2.104492,-2.1e-5 -2.104493,-2e-5 z"
     id="path27" />
  <path
     style="fill:#000000;fill-opacity:1;stroke-width:0.00390625"
     d="m 60.639182,76.129872 c -0.305257,-1.209067 -0.688396,-2.205896 -1.181133,-3.072998 -0.214635,-0.377708 -0.445455,-0.728022 -0.719532,-1.09203 -0.113957,-0.151349 -0.139708,-0.183918 -0.511156,-0.646485 -0.17166,-0.213769 -0.311861,-0.38904 -0.311559,-0.389491 3.03e-4,-4.51e-4 0.03827,-0.0062 0.08437,-0.01269 l 0.08382,-0.01188 3.393555,-10e-7 h 3.393555 v 2.658203 2.658203 l -2.104492,-1e-5 -2.104493,-1.1e-5 z"
     id="path30" />
  <path
     style="fill:#000000;fill-opacity:1;stroke-width:0.00390625"
     d="m 60.639092,76.129866 c -0.432853,-1.707583 -0.99781,-2.954404 -1.866894,-4.1201 -0.125327,-0.168101 -0.2057,-0.269639 -0.724298,-0.915039 -0.0738,-0.09185 -0.132787,-0.167013 -0.131081,-0.167038 0.0017,-2.5e-5 0.04002,-0.0053 0.08513,-0.01172 l 0.08203,-0.01167 h 3.393559 3.39356 v 2.658203 2.658203 l -2.104492,-1.6e-5 -2.104493,-1.7e-5 z"
     id="path31" />
  <path
     style="fill:#000000;fill-opacity:1;stroke-width:0.0078125"
     d="m 70.751707,93.120729 0.0022,-0.03943 0.207031,-0.106172 c 1.209261,-0.620145 2.132407,-1.139492 3.191407,-1.795434 2.789531,-1.727829 5.319507,-3.658126 7.734375,-5.9011 l 0.203125,-0.188666 0.05625,-4.3e-5 0.05625,-4.2e-5 -0.130471,0.123268 c -0.07176,0.0678 -0.199026,0.186576 -0.282816,0.263953 -3.150332,2.90924 -6.667038,5.393917 -10.445312,7.379986 -0.302796,0.159167 -0.582517,0.303105 -0.589034,0.303105 -0.0029,0 -0.0042,-0.01774 -0.003,-0.03943 z"
     id="path33" />
  <path
     style="fill:#000000;fill-opacity:1;stroke-width:0.0110485"
     d="m 86.66091,80.159945 c 0.0047,-0.0076 0.08607,-0.110762 0.18089,-0.229257 0.585543,-0.731742 1.248844,-1.618179 1.818824,-2.43068 2.175016,-3.100464 3.990542,-6.455104 5.393467,-9.965786 0.306698,-0.767481 0.519417,-1.339399 0.847565,-2.278762 0.03971,-0.113688 0.04284,-0.118772 0.07313,-0.118772 0.0174,0 0.03164,0.002 0.03164,0.0044 0,0.0083 -0.174865,0.510244 -0.279454,0.802175 -1.803884,5.035032 -4.455711,9.795389 -7.793457,13.990218 l -0.191207,0.240306 h -0.04494 c -0.03312,0 -0.04271,-0.0036 -0.03646,-0.01381 z"
     id="path34" />
  <path
     style="fill:#000000;fill-opacity:1;stroke-width:0.0078125"
     d="m 82.140745,85.040877 c 0.028,-0.02678 0.128189,-0.122518 0.222651,-0.212752 1.467153,-1.401486 2.934228,-2.991408 4.184744,-4.535156 l 0.09809,-0.121094 0.04779,0.0026 0.04779,0.0026 -0.09917,0.122363 c -1.282176,1.581989 -2.664164,3.084868 -4.166078,4.530507 l -0.269531,0.259432 -0.05859,5.7e-5 -0.05859,5.7e-5 z"
     id="path36" />
  <path
     style="fill:#000000;fill-opacity:1;stroke-width:0.015625"
     d="m 94.953125,65.120644 c 0,-0.0067 0.04589,-0.149077 0.101978,-0.316407 1.751215,-5.224509 2.629271,-11.036903 2.509045,-16.608925 -0.0095,-0.442578 -0.02183,-0.862695 -0.02728,-0.933593 -0.0084,-0.108867 -0.0063,-0.128907 0.01365,-0.128907 0.03587,0 0.04081,0.08906 0.06019,1.085938 0.02957,1.521225 -0.01395,3.121272 -0.127289,4.679687 -0.282944,3.890519 -1.043724,7.807259 -2.232518,11.493718 -0.237472,0.736404 -0.239022,0.740657 -0.269933,0.740657 -0.01531,0 -0.02784,-0.0055 -0.02784,-0.01217 z"
     id="path37" />
  <path
     style="fill:#000000;fill-opacity:1;stroke-width:0.03125"
     d="M 97.503893,46.398437 C 96.922998,35.832181 92.97556,25.761197 86.238061,17.65625 c -2.087636,-2.511345 -4.61012,-4.985188 -7.089838,-6.953125 -0.184087,-0.146094 -0.321337,-0.270157 -0.305001,-0.275696 0.03478,-0.01179 0.89459,0.67732 1.609903,1.290288 7.307614,6.262055 12.644327,14.577037 15.266065,23.785622 0.936543,3.289515 1.518398,6.592102 1.763978,10.012286 0.05586,0.777941 0.09384,1.59375 0.0742,1.59375 -0.0079,0 -0.03198,-0.319922 -0.05348,-0.710938 z"
     id="path38" />
  <path
     style="fill:#000000;fill-opacity:1;stroke-width:0.015625"
     d="M 78.695312,10.357602 C 78.529325,10.223464 77.972412,9.8002384 77.59375,9.5204708 76.024189,8.3608314 74.202539,7.1826742 72.507812,6.2311267 69.181692,4.3635906 65.65222,2.9012206 61.960937,1.8612282 61.575577,1.7526555 60.932174,1.5820462 60.683594,1.5225185 60.560698,1.4930885 60.53125,1.4805906 60.53125,1.4578621 c 0,-0.015496 0.0038,-0.028175 0.0085,-0.028175 0.04669,0 1.173357,0.3016134 1.780546,0.4766597 5.256687,1.5154456 10.26061,3.939599 14.734375,7.1380765 0.362255,0.2589902 0.894611,0.6504132 1.148438,0.8444061 0.358456,0.2739586 0.649622,0.4999626 0.671875,0.5215136 0.02065,0.02 0.01897,0.02135 -0.01408,0.01141 -0.03053,-0.0092 -0.03572,-0.0066 -0.02783,0.01395 0.01563,0.04074 -0.0057,0.02867 -0.137771,-0.07809 z"
     id="path39" />
  <path
     style="fill:#000000;fill-opacity:1;stroke-width:0.00390625"
     d="m 83.177588,14.32578 c -0.09537,-0.09802 -0.612812,-0.602174 -0.841652,-0.82004 -0.921078,-0.876907 -1.879494,-1.720659 -2.874999,-2.531039 -0.112197,-0.09133 -0.514977,-0.413866 -0.604544,-0.4841 -0.0285,-0.02234 -0.05102,-0.04142 -0.05006,-0.04238 9.64e-4,-9.64e-4 0.0058,0.0011 0.01069,0.0045 0.0049,0.0034 0.01228,0.0063 0.01637,0.0063 0.0077,0 0.0077,-0.0041 7.4e-5,-0.03088 -0.0026,-0.0091 -0.0021,-0.0093 0.0126,-0.0066 0.05313,0.0097 0.05506,0.008 0.02298,-0.01938 -0.01187,-0.01014 -0.02079,-0.01923 -0.01982,-0.02019 0.0045,-0.0045 0.579863,0.457342 0.93984,0.75449 1.137034,0.93858 2.288724,1.981932 3.306609,2.995558 0.171515,0.170797 0.212741,0.213758 0.204297,0.212891 -0.0081,-8.35e-4 -0.07926,-0.06864 -0.306641,-0.292295 -0.327393,-0.322025 -0.379189,-0.372444 -0.563729,-0.548735 -0.635338,-0.606942 -1.258819,-1.172191 -1.919832,-1.740526 -0.730508,-0.628085 -1.616264,-1.339453 -1.667814,-1.339453 -0.0073,0 9.42e-4,0.01457 0.02001,0.03517 0.04677,0.05051 0.145951,0.134917 0.351114,0.298788 1.028637,0.821616 2.025355,1.691985 3.034968,2.650242 0.38881,0.369032 0.967901,0.937677 0.954903,0.937677 -0.0033,0 -0.0147,-0.009 -0.02536,-0.01992 z"
     id="path40" />
  <path
     style="fill:#000000;fill-opacity:1;stroke-width:0.00390625"
     d="m 78.802106,10.436927 c -0.01458,-0.01 -0.05205,-0.03866 -0.08325,-0.06373 C 78.458793,10.164311 77.799954,9.666653 77.330078,9.3241794 77.181637,9.2159868 76.820978,8.9586266 76.692396,8.8691406 l -0.09822,-0.068359 -2.1e-4,-0.038086 c -1.16e-4,-0.020947 7.42e-4,-0.038086 0.0019,-0.038086 0.0029,0 0.228997,0.1590493 0.428076,0.3010874 0.324778,0.2317215 0.854409,0.6197661 1.097151,0.8038492 0.27764,0.2105478 0.716153,0.5505268 0.746093,0.5784468 0.01503,0.01402 0.01616,0.01605 0.0078,0.01406 -0.0054,-0.0013 -0.01839,-0.0034 -0.02893,-0.0048 l -0.01917,-0.0025 0.0022,0.01331 c 0.0012,0.0073 0.0034,0.01639 0.0049,0.02015 0.0043,0.01092 -0.0035,0.0081 -0.03196,-0.01131 z"
     id="path41" />
  <path
     style="fill:#000000;fill-opacity:1;stroke-width:0.00390625"
     d="m 78.803522,10.437896 c -0.0138,-0.0095 -0.06357,-0.04778 -0.110599,-0.08519 C 78.372995,10.098258 77.640978,9.548013 77.189453,9.2225792 77.041461,9.1159147 76.802728,8.9463057 76.686472,8.8652344 l -0.09242,-0.064453 -1.49e-4,-0.038086 c -8.1e-5,-0.020947 7.78e-4,-0.038086 0.0019,-0.038086 0.0045,0 0.376881,0.2633149 0.601458,0.4253197 0.584609,0.4217245 1.039457,0.7626107 1.548828,1.1607699 0.11694,0.09141 0.144276,0.115023 0.128906,0.111354 -0.0054,-0.0013 -0.01836,-0.0034 -0.02887,-0.0048 l -0.0191,-0.0025 0.0027,0.01456 c 0.0015,0.008 0.0037,0.01707 0.0049,0.02014 0.0036,0.0095 -0.005,0.0063 -0.03111,-0.0116 z"
     id="path43" />
  <path
     style="fill:#000000;fill-opacity:1;stroke-width:0.00390625"
     d="m 78.802005,10.436878 c -0.01464,-0.01001 -0.06792,-0.051 -0.118411,-0.09109 -0.294392,-0.233761 -0.902593,-0.6926235 -1.359375,-1.0255925 -0.12475,-0.090935 -0.519581,-0.372589 -0.637776,-0.4549591 l -0.09249,-0.064453 -1.04e-4,-0.038086 c -5.6e-5,-0.020947 9.6e-4,-0.038086 0.0023,-0.038086 0.005,0 0.410372,0.2871411 0.649982,0.4604577 0.428977,0.3102909 0.802564,0.5875193 1.111328,0.8246859 0.32782,0.251805 0.51035,0.394727 0.521567,0.408393 0.0053,0.0065 0.005,0.0068 -0.004,0.0043 -0.0054,-0.0015 -0.01836,-0.0038 -0.02887,-0.0052 l -0.0191,-0.0025 0.0027,0.01456 c 0.0015,0.008 0.0037,0.01707 0.0049,0.02014 0.0037,0.0096 -0.0051,0.0062 -0.03263,-0.01262 z"
     id="path44" />
  <path
     style="fill:#000000;fill-opacity:1;stroke-width:0.00390625"
     d="m 78.802005,10.436864 c -0.01464,-0.01002 -0.06792,-0.05098 -0.118411,-0.09103 -0.497063,-0.3942902 -1.41096,-1.0715255 -2.008725,-1.4885486 l -0.08099,-0.056502 -6.4e-5,-0.038086 c -3.5e-5,-0.020947 9.98e-4,-0.038086 0.0023,-0.038086 0.0031,0 0.210044,0.1453587 0.413656,0.2906064 0.280749,0.2002741 0.666852,0.4821317 0.962526,0.7026502 0.300612,0.2242017 0.878657,0.670212 0.902946,0.696698 l 0.0095,0.01039 -0.01367,-0.0028 c -0.0075,-0.0015 -0.02051,-0.0038 -0.02886,-0.0051 l -0.01519,-0.0022 0.0027,0.01454 c 0.0015,0.008 0.0037,0.01705 0.0049,0.02012 0.0037,0.0096 -0.0051,0.0062 -0.03263,-0.01263 z"
     id="path45" />
  <path
     id="path48"
     style="fill:#000000;fill-opacity:1;stroke-width:0.00390625"
     d="m 60.394531,75.365234 c -0.0087,0 -0.01563,0.0021 -0.01563,0.0039 0,0.002 0.01156,0.04184 0.02539,0.08984 0.0022,0.0078 0.0015,0.0073 0.0039,0.01563 0.02642,0.09224 0.05148,0.185267 0.07617,0.279297 0.0035,0.01323 0.0083,0.02577 0.01172,0.03906 0.002,0.0078 0.0038,0.0156 0.0059,0.02344 1.52e-4,6.22e-4 -1.59e-4,0.0013 0,0.002 0.0033,0.01291 0.0065,0.02612 0.0098,0.03906 0.01728,0.06818 0.03235,0.137679 0.04883,0.207031 0.0023,0.0099 0.0055,0.01941 0.0078,0.0293 0.0019,0.0079 0.004,0.01554 0.0059,0.02344 0.0037,0.01588 0.0081,0.03094 0.01172,0.04687 2.85e-4,0.0012 -2.87e-4,0.0027 0,0.0039 0.01996,0.08684 0.04019,0.174384 0.05859,0.261719 0.002,0.0097 0.0038,0.01957 0.0059,0.0293 9.4e-4,0.0045 0.001,0.0091 0.002,0.01367 0.01943,0.09427 0.03725,0.187751 0.05469,0.28125 0.0028,0.015 0.007,0.02996 0.0098,0.04492 0.0023,0.01235 0.0036,0.02471 0.0059,0.03711 0.0012,0.0072 0.0026,0.0143 0.0039,0.02148 0.0024,0.01318 0.0054,0.02582 0.0078,0.03906 1.15e-4,6.35e-4 -1.13e-4,0.0013 0,0.002 0.0066,0.03793 0.0093,0.05082 0.01563,0.08789 0.01263,0.07399 0.0271,0.161558 0.0293,0.179688 3.05e-4,0.0019 -3.08e-4,0.0039 0,0.0059 -6.83e-4,-8.69e-4 -8.46e-4,-0.0013 -0.002,-0.0039 -0.0032,-0.0075 -0.0036,-0.0082 -0.0039,0 -2e-4,0.0047 0.0015,0.009 0.0039,0.0098 0.0019,6.35e-4 0.0079,0.02808 0.01367,0.06055 0.0011,0.0062 7.38e-4,0.0046 0.002,0.01172 7.55e-4,0.0046 0.0012,0.0051 0.002,0.0098 0.0081,0.05068 0.01584,0.100648 0.02344,0.152343 6.97e-4,0.0049 0.0013,0.01117 0.002,0.01563 8.7e-5,6.99e-4 -1.07e-4,0.0012 0,0.002 0.0013,0.0095 0.0026,0.01057 0.0039,0.01953 3.81e-4,0.0026 -3.76e-4,0.0034 0,0.0059 0.0045,0.0333 0.0096,0.06597 0.01172,0.07227 1.62e-4,6.79e-4 0.0018,0.0075 0.002,0.0078 v 0.002 l -0.002,0.002 c -0.0025,-0.0016 -0.0039,-0.0052 -0.0039,-0.0098 0,-0.0053 -0.0016,-0.0082 -0.0039,-0.0059 -0.0022,0.0023 -0.0021,0.01003 0,0.01953 0.0019,0.0086 0.01073,0.07363 0.01953,0.144531 0.0054,0.04353 0.0097,0.07563 0.01367,0.105469 5.1e-4,0.0039 0.0015,0.0099 0.002,0.01367 6.16e-4,0.0048 0.0014,0.01318 0.002,0.01758 9.6e-5,9.5e-4 -9e-5,0.003 0,0.0039 -7.4e-5,0.0022 -1.62e-4,0.0046 0,0.0059 0.0026,0.02839 0.0057,0.05278 0.0059,0.07227 0,0.0037 0.0027,0.0059 0.0059,0.0059 0.0023,0.0049 0.0045,0.03605 0.0078,0.109375 0.0012,0.02797 0.0028,0.05412 0.0039,0.08203 0.0014,0.0348 0.0022,0.05054 0.0039,0.09961 8.38e-4,0.02691 9.24e-4,0.04782 0.002,0.07813 7.7e-5,0.0023 -7.5e-5,0.0037 0,0.0059 0.0025,0.07595 0.0054,0.175686 0.0078,0.257813 0.0051,0.175428 0.0092,0.345471 0.01367,0.550781 7.51e-4,0.03422 0.0012,0.05671 0.002,0.0918 0.0079,0.373195 0.01547,0.790899 0.02148,1.255859 1.31e-4,0.01012 -1.29e-4,0.01719 0,0.02734 1.9e-5,0.0015 -1.8e-5,0.0025 0,0.0039 l 0.002,0.207032 h 0.002 2.791016 0.002 2.791016 v -2.658203 -2.658204 h -3.050782 -3.048828 -0.002 l 0.01172,0.03711 0.0078,0.02539 c 0.02009,0.06708 0.04181,0.14177 0.0625,0.214844 0.0067,0.02364 0.01282,0.04425 0.01953,0.06836 7.67e-4,0.0027 0.0011,0.0049 0.002,0.0078 0.0028,0.01048 0.0049,0.02088 0.0078,0.03125 5.69e-4,0.0021 0.0014,0.0038 0.002,0.0059 0.01442,0.05228 0.0287,0.102993 0.04297,0.15625 0.0117,0.04379 0.02392,0.08764 0.03516,0.13086 0.0027,0.01011 0.0053,0.02157 0.0078,0.03125 0.002,0.0077 0.0039,0.01583 0.0059,0.02344 0.0073,0.02818 0.01457,0.05868 0.02148,0.08594 0.0036,0.01413 0.0063,0.02733 0.0098,0.04102 0.01927,0.07756 0.03724,0.153278 0.05273,0.220703 0.01273,0.05571 0.02652,0.115109 0.03516,0.158204 0.0032,0.01513 0.007,0.03237 0.0098,0.04687 v 0.002 c 0.0015,0.0081 0.0024,0.01696 0.0039,0.02539 0.01122,0.0611 0.02192,0.123823 0.03125,0.1875 0.0023,0.01574 0.0036,0.03121 0.0059,0.04687 0.0012,0.0082 0.0028,0.01531 0.0039,0.02344 0.0016,0.01143 0.0024,0.02195 0.0039,0.0332 0.0069,0.05405 0.01344,0.107691 0.01953,0.167969 0.0019,0.01956 0.0047,0.04231 0.0059,0.05859 1.25e-4,0.0013 -1.28e-4,0.0026 0,0.0039 0.0025,0.02961 0.0058,0.06987 0.0059,0.07813 1e-4,0.01487 5.53e-4,0.03512 0.002,0.04492 0.0014,0.0098 0.0015,0.01703 0,0.01563 -3.21e-4,-3.14e-4 -0.0014,-0.01253 -0.002,-0.01563 -1.69e-4,-0.0018 1.66e-4,-0.004 0,-0.0059 -0.0018,-0.02087 -0.004,-0.04374 -0.0059,-0.06445 -1.68e-4,-0.0019 1.69e-4,-0.004 0,-0.0059 -0.002,-0.02188 -0.0038,-0.04732 -0.0059,-0.06836 -0.0029,-0.03006 -0.0066,-0.06513 -0.0098,-0.09375 -0.0057,-0.05266 -0.01289,-0.104964 -0.01953,-0.154296 -0.0061,-0.04556 -0.01237,-0.0904 -0.01953,-0.134766 -7.5e-4,-0.0064 -9.78e-4,-0.01095 -0.002,-0.01367 -0.0025,-0.01493 -0.0052,-0.02999 -0.0078,-0.04492 -0.0042,-0.02409 -0.0091,-0.04797 -0.01367,-0.07227 -3.58e-4,-0.0019 3.62e-4,-0.004 0,-0.0059 -0.0042,-0.02194 -0.0092,-0.04408 -0.01367,-0.06641 -0.0014,-0.0052 -0.0036,-0.01328 -0.0039,-0.01758 -0.0066,-0.03208 -0.01408,-0.06424 -0.02148,-0.09766 -10e-4,-0.0046 -9.16e-4,-0.009 -0.002,-0.01367 -2.2e-4,-8.13e-4 -0.0015,-0.0012 -0.002,-0.002 -1.47e-4,-6.72e-4 1.74e-4,-0.0013 0,-0.002 -3.88e-4,-0.0019 2.73e-4,-0.0041 0,-0.0059 -4.02e-4,-0.0018 -0.0016,-0.0041 -0.002,-0.0059 -0.0024,-0.01046 -0.0054,-0.02452 -0.0078,-0.03516 -8.38e-4,-0.0036 -0.003,-0.0078 -0.0039,-0.01172 -0.0035,-0.01478 -0.0065,-0.03094 -0.0098,-0.04492 v -0.002 c -0.0063,-0.02641 -0.01468,-0.05625 -0.02148,-0.08398 -0.01626,-0.06623 -0.0291,-0.12522 -0.04883,-0.201172 -0.0048,-0.01858 -0.01239,-0.04086 -0.01758,-0.06055 -0.0017,-0.0076 -0.0027,-0.0132 -0.0039,-0.01562 -0.01386,-0.0524 -0.02794,-0.104889 -0.04297,-0.160157 0,-0.0019 -0.0016,-0.0063 -0.0039,-0.01172 -0.0026,-0.0095 -0.0052,-0.0179 -0.0078,-0.02734 -0.0029,-0.01069 -0.0049,-0.02065 -0.0078,-0.03125 6.5e-5,-0.0019 -0.0016,-0.0062 -0.0039,-0.01172 -0.0053,-0.01926 -0.01043,-0.03793 -0.01563,-0.05664 -0.0141,-0.05077 -0.02484,-0.09372 -0.03711,-0.136718 -0.0068,-0.02379 -0.0087,-0.02614 -0.01367,-0.04297 -0.01106,-0.03735 -0.0229,-0.07587 -0.0293,-0.0957 -2.39e-4,-7.41e-4 2.37e-4,-0.0032 0,-0.0039 -0.0031,-0.0096 -0.01277,-0.04593 -0.01367,-0.04687 -0.0022,-0.0022 -0.0038,5.9e-5 -0.0039,0.0059 v 0.0039 c -0.0014,0.0022 -0.0031,2.24e-4 -0.0039,-0.002 -3.97e-4,-9.94e-4 -0.0015,-0.0012 -0.002,-0.002 -8.6e-4,-0.0032 -0.0012,-0.0046 -0.0039,-0.0059 -0.0029,-0.0016 -0.0073,-0.002 -0.01367,-0.002 z m 0.04297,0.07227 c 0.0015,0.0045 0.0032,0.0069 0.0039,0.0098 -2.72e-4,-6.5e-5 -0.0017,1.52e-4 -0.002,0 -0.0018,-0.001 -0.0046,-0.0025 -0.0059,-0.0059 -2.39e-4,-6.21e-4 2.01e-4,-0.0013 0,-0.002 -2.71e-4,-0.006 2.14e-4,-0.01321 0.0039,-0.002 z m 0.01172,0.03906 c 0.0015,0.0045 0.0032,0.0069 0.0039,0.0098 h -0.002 c -0.0015,-3.91e-4 -0.0012,-0.0058 -0.002,-0.0098 z m 0.0098,0.03906 c 0.0019,0.004 0.0033,0.0053 0.0059,0.01367 0.0026,0.0087 0.003,0.01251 0.0039,0.01758 -0.0017,-0.0026 -0.0043,-0.0033 -0.0059,-0.0078 -1.96e-4,-6.81e-4 2.89e-4,-0.0015 0,-0.002 -6.86e-4,-0.0022 -0.0014,-0.0021 -0.002,-0.0039 -5.82e-4,-0.002 2.78e-4,-0.0024 0,-0.0039 -9.9e-4,-0.0055 -0.0017,-0.0098 -0.002,-0.01367 z m 0.01563,0.05469 c 0.0011,-9.96e-4 0.0025,0.0021 0.0039,0.0078 7.17e-4,0.0029 2.69e-4,0.0043 0,0.0059 h -0.002 l -0.002,-0.002 c -4.78e-4,-0.0019 1.23e-4,-0.0023 0,-0.0039 -2.44e-4,-0.0032 -7.33e-4,-0.0071 0,-0.0078 z m 0.0078,0.02734 c 0.0011,-0.001 0.0025,0.0021 0.0039,0.0078 7.19e-4,0.0029 2.7e-4,0.0043 0,0.0059 -0.0015,10e-4 -0.0025,0.0018 -0.0039,-0.002 -4.79e-4,-0.0019 1.22e-4,-0.0023 0,-0.0039 -2.45e-4,-0.0032 -7.33e-4,-0.0071 0,-0.0078 z m 0.0078,0.02734 c 0.0011,-0.001 0.0025,0.0021 0.0039,0.0078 7.17e-4,0.0029 2.69e-4,0.0043 0,0.0059 -0.0017,7.75e-4 -0.003,8.01e-4 -0.0039,-0.002 -4.78e-4,-0.0019 1.23e-4,-0.0023 0,-0.0039 -2.44e-4,-0.0032 -7.33e-4,-0.0071 0,-0.0078 z m 0.0078,0.02734 c 9.9e-4,7.69e-4 0.0027,0.0031 0.0039,0.0078 4.79e-4,0.0019 -1.22e-4,0.0023 0,0.0039 -6.12e-4,-2.37e-4 -0.0015,3.08e-4 -0.002,0 -6.14e-4,-0.0017 -0.0016,-0.0026 -0.002,-0.0039 -2.89e-4,-0.0033 -4.92e-4,-0.0063 0,-0.0078 z m 0.0078,0.02539 c 0.0011,-0.001 0.0025,0.0041 0.0039,0.0098 4.78e-4,0.0019 -1.23e-4,0.0023 0,0.0039 -1.94e-4,-1.93e-4 -0.0018,2.03e-4 -0.002,0 v -0.002 c -3.1e-4,-8.98e-4 2.99e-4,-0.0011 0,-0.002 -0.0017,-0.0029 -0.0024,-0.0063 -0.002,-0.0098 z m 0.01563,0.05664 c 9.91e-4,7.7e-4 0.0027,0.0031 0.0039,0.0078 7.18e-4,0.0029 4.2e-5,0.0038 0,0.0059 -0.0037,-0.0041 -0.0052,-0.01027 -0.0039,-0.01367 z m 0.0098,0.0293 c 0.0012,9.84e-4 0.0019,0.0043 0.0039,0.01172 0.0018,0.0065 0.0021,0.01157 0.002,0.01563 -4.42e-4,-5.42e-4 -0.0015,-0.0012 -0.002,-0.002 -8.41e-4,-0.0023 -0.0028,-0.0031 -0.0039,-0.0059 -2.09e-4,-7.31e-4 10e-7,-0.0013 0,-0.002 -6.09e-4,-0.0022 4.01e-4,-0.0036 0,-0.0059 -7.74e-4,-0.0035 -0.0018,-0.0054 -0.002,-0.0078 -5.3e-5,-0.0011 -2.85e-4,-0.0014 0,-0.002 4.27e-4,-8.41e-4 0.0015,-0.0017 0.002,-0.002 z m 0.01758,0.06836 c 0.0011,-0.001 0.0035,0.0047 0.0059,0.01367 0.0015,0.0057 0.0019,0.0096 0.002,0.01367 -0.0016,-0.0016 -0.0043,-0.0031 -0.0059,-0.0078 v -0.002 c -0.0012,-0.004 -0.0017,-0.0065 -0.002,-0.0098 -2.23e-4,-0.0026 -4.56e-4,-0.0062 0,-0.0078 z m 0.01367,0.04883 c 9.69e-4,0.0016 0.0025,0.0025 0.0039,0.0078 0.0015,0.0057 0.0019,0.0096 0.002,0.01367 -0.0031,-0.0031 -0.006,-0.01269 -0.0059,-0.02148 z m 0.01172,0.04297 c 9.68e-4,0.0016 0.0025,0.0025 0.0039,0.0078 8.72e-4,0.0032 -3.41e-4,0.0049 0,0.0078 -0.0015,0 -0.0034,-0.0058 -0.0039,-0.01172 v -0.002 c -9.7e-5,-0.0012 -5.8e-5,-0.0015 0,-0.002 z m 0.01172,0.04492 c 9.33e-4,0.0012 0.0028,0.0016 0.0039,0.0059 0.0018,0.0065 0.002,0.01129 0.002,0.01563 -0.0027,-0.0031 -0.0055,-0.01325 -0.0059,-0.02148 z m 0.01953,0.07031 c 0.0012,0.0011 0.0022,0.01271 0.0039,0.01953 0.0016,0.0063 0.0039,0.0075 0.0059,0.01758 -0.0012,-0.0011 -0.0025,-0.0034 -0.0039,-0.0078 -8.03e-4,-0.0025 -0.0012,-0.0029 -0.002,-0.0059 -4.69e-4,-0.0019 3.75e-4,-0.0023 0,-0.0039 -3.61e-4,-0.0018 -0.0017,-0.002 -0.002,-0.0039 -7.02e-4,-0.0058 -0.0011,-0.01025 -0.002,-0.01563 z m 0.02734,0.103516 c 0.0034,0.01 0.0076,0.02406 0.01367,0.04883 0.0066,0.02676 0.0104,0.04342 0.01172,0.05273 l -0.002,-0.002 c -0.0012,-0.0015 -0.0051,-0.01619 -0.0078,-0.02539 -0.0023,-0.0069 -0.0033,-0.0079 -0.0059,-0.01758 -8.39e-4,-0.0034 -0.0012,-0.0027 -0.002,-0.0059 v -0.002 c -2.37e-4,-9.43e-4 1.89e-4,-0.0015 0,-0.002 -0.0052,-0.0216 -0.0072,-0.03871 -0.0078,-0.04687 z m 0.03711,0.15625 c 0.0012,6.17e-4 0.0035,0.0059 0.0059,0.01563 0.0015,0.0063 0.0016,0.01003 0.002,0.01367 -0.0021,-0.0015 -0.0026,-0.0034 -0.0039,-0.0078 -3.15e-4,-10e-4 -0.0017,-0.0027 -0.002,-0.0039 -0.0016,-0.0064 -0.002,-0.0098 -0.002,-0.01367 -1.36e-4,-0.0015 1.19e-4,-0.0023 0,-0.0039 z m 0.01758,0.07031 c 0.0013,0.0022 0.0022,0.0045 0.0039,0.01172 0.0022,0.009 0.0039,0.01565 0.0039,0.01953 -3.8e-4,6.04e-4 -0.0016,-2.67e-4 -0.002,0 -6.98e-4,-9.81e-4 -0.0013,-0.0027 -0.002,-0.0039 -8.91e-4,-0.0018 -0.0012,-0.0022 -0.002,-0.0059 -9.85e-4,-0.0048 -0.0013,-0.01379 -0.002,-0.02148 z m 0.0098,0.05078 c 9.82e-4,0.0012 0.0031,0.0015 0.0039,0.0059 0.0015,0.0078 0.0031,0.01453 0.002,0.01563 -0.0018,-0.0026 -0.0027,-0.006 -0.0039,-0.0098 -1.69e-4,-0.0012 -0.0015,-0.0025 -0.002,-0.0039 -3.5e-4,-0.0017 1.14e-4,-0.0025 0,-0.0039 -6.2e-5,-0.0016 -2.1e-5,-0.0027 0,-0.0039 z m 0.0078,0.03125 c 0.0011,0.0027 0.0011,0.0071 0,0.0098 -0.0011,0.0027 -0.002,-4.6e-4 -0.002,-0.0059 0,-0.0054 8.53e-4,-0.0066 0.002,-0.0039 z m 0.0059,0.02344 c 7.96e-4,0.0015 0.0012,0.002 0.002,0.0059 5.51e-4,0.0029 1.78e-4,0.0042 0,0.0059 -0.0012,-4.61e-4 -0.0031,-1.59e-4 -0.0039,-0.002 -1.83e-4,-9.76e-4 -6.5e-5,-0.0014 0,-0.002 -2.58e-4,-0.001 5.7e-5,-0.0011 0,-0.002 -2.09e-4,-0.0024 0.0013,-0.0046 0.002,-0.0059 z m 0.0078,0.02734 c 0,0.0011 0.0033,0.02113 0.0078,0.04297 0.0029,0.01399 0.0049,0.02086 0.0059,0.02734 -0.0013,-0.0014 -0.0045,-0.0078 -0.0059,-0.01172 -0.0013,-0.0037 -0.0027,-0.0067 -0.0039,-0.01172 v -0.002 c -1.66e-4,-7.68e-4 -8.6e-5,-0.0014 0,-0.002 -1.79e-4,-7.96e-4 1.74e-4,-0.0011 0,-0.002 -3.81e-4,-0.0021 -0.0015,-0.0027 -0.002,-0.0039 -1.52e-4,-7.84e-4 1.46e-4,-0.0012 0,-0.002 -0.0011,-0.0052 -0.0013,-0.0084 -0.002,-0.01367 -8.75e-4,-0.0068 -0.0019,-0.01259 -0.002,-0.01758 1.64e-4,-6.87e-4 -2.89e-4,-0.0013 0,-0.002 4.33e-4,-9.39e-4 0.0016,-0.0018 0.002,-0.002 z m 0.01758,0.105469 c 0.0014,0.0028 0.0043,0.0051 0.0059,0.01367 0.0012,0.0065 0.0017,0.0099 0.002,0.01367 -6.24e-4,5.39e-4 -0.0014,0.0023 -0.002,0.002 -9.5e-4,-0.0017 -9.86e-4,-0.003 -0.002,-0.0078 -0.0012,-0.006 -0.0013,-0.0076 -0.002,-0.01172 -4.07e-4,-0.0043 -0.0015,-0.0069 -0.002,-0.0098 z m 0.01172,0.05469 c 0.0011,0.0027 0.0011,0.0071 0,0.0098 -0.0011,0.0027 -0.002,-4.59e-4 -0.002,-0.0059 0,-0.0054 8.53e-4,-0.0066 0.002,-0.0039 z m 0.0059,0.02539 c 0.0012,0.0034 0.0021,0.0071 0.0039,0.01758 0.0014,0.0085 0.0015,0.0129 0.002,0.01758 -7.47e-4,-0.0013 -0.003,-0.0051 -0.0039,-0.0078 -10e-4,-0.0031 -8.86e-4,-0.0051 -0.002,-0.0098 -0.0022,-0.0098 -0.0019,-0.01526 0,-0.01758 z m 0.01172,0.06641 c 10e-4,0.0016 0.0012,0.003 0.002,0.0078 6.7e-4,0.0045 0.0016,0.0064 0.002,0.0098 -5e-4,0.01368 -0.0033,0.0075 -0.0059,-0.0039 -1.4e-4,-0.001 -2.3e-5,-0.0014 0,-0.002 -1.9e-4,-10e-4 1.42e-4,-0.0011 0,-0.002 v -0.002 c -4.08e-4,-0.003 -1.13e-4,-0.0042 0,-0.0059 z m 0.0059,0.04297 c 9.56e-4,0.0038 0.0011,0.0091 0,0.01172 -0.0011,0.0027 -0.002,-0.0014 -0.002,-0.0078 0,-0.0064 9.63e-4,-0.0077 0.002,-0.0039 z m 0.0039,0.02344 c 9.56e-4,0.0038 0.0011,0.0091 0,0.01172 -0.0011,0.0027 -0.002,-0.0014 -0.002,-0.0078 0,-0.0064 9.63e-4,-0.0077 0.002,-0.0039 z m 0.0039,0.0293 c 0.0013,0.0037 0.004,0.0087 0.0059,0.02148 0.0012,0.0087 0.0018,0.01291 0.002,0.01758 -6.78e-4,-6.57e-4 -0.0013,3.2e-4 -0.002,-0.002 -2.08e-4,-6.88e-4 -0.0017,-0.003 -0.002,-0.0039 -7.06e-4,-0.0028 -0.0011,-0.0087 -0.002,-0.01367 -2.44e-4,-0.0014 2.63e-4,-0.0023 0,-0.0039 -5.42e-4,-0.007 -0.0016,-0.01159 -0.002,-0.01563 z m 0.01953,0.126953 c 0.001,-0.001 0.0033,0.01579 0.0059,0.03711 0.0016,0.01305 0.0033,0.02034 0.0039,0.02734 -9e-4,0.0014 -0.0029,6.37e-4 -0.0039,-0.002 -4.83e-4,-0.003 -0.0016,-0.0023 -0.002,-0.0059 -1.35e-4,-0.0013 1.46e-4,-0.0025 0,-0.0039 v -0.002 c -8.8e-4,-0.0057 -0.0014,-0.01258 -0.002,-0.01953 -1.64e-4,-0.0021 1.22e-4,-0.0038 0,-0.0059 -4.3e-4,-0.0038 -0.0017,-0.0091 -0.002,-0.01172 -1.14e-4,-9.87e-4 -3.6e-5,-0.0014 0,-0.002 10e-6,-0.0031 1.23e-4,-0.0081 0,-0.01172 z m 0.02148,0.169922 c 8.28e-4,0.0043 6.44e-4,0.01081 0,0.01563 -0.0011,-0.0025 -0.0015,-0.0049 -0.002,-0.0078 0,-0.0078 0.0013,-0.0091 0.002,-0.0078 z m 0.0039,0.03516 c 7.32e-4,0.0048 4.66e-4,0.01183 0,0.01758 -0.0011,-0.0012 -0.0018,-0.0063 -0.002,-0.0098 3.77e-4,-0.0049 0.0013,-0.0118 0.002,-0.0078 z m 0.01758,0.162109 c 0.001,-9.5e-4 0.0024,0.0074 0.0039,0.01953 5.04e-4,0.004 -5.6e-5,0.0047 0,0.0078 -2.94e-4,0.0012 -0.0016,-8.57e-4 -0.002,-0.002 -8.34e-4,-0.0086 -0.0012,-0.01731 -0.002,-0.02539 z m 0.01172,0.111328 0.002,0.02148 c 0.001,0.0083 0.0016,0.01182 0.002,0.01758 2.58e-4,0.0044 1.42e-4,0.0112 0,0.01367 -3.88e-4,-7.77e-4 -0.0015,2.8e-5 -0.002,-0.0059 -6.43e-4,-0.0089 -0.0013,-0.01487 -0.002,-0.02344 -1.87e-4,-0.0104 -5.67e-4,-0.02058 0,-0.02344 z m 0.01563,0.259766 0.002,0.02344 c 3.4e-5,7.71e-4 -4.2e-5,0.0012 0,0.002 8.61e-4,0.0085 0.0016,0.01866 0.002,0.0293 3.38e-4,0.0099 2.59e-4,0.01959 0,0.02734 3e-6,0.0084 9.31e-4,0.03203 0,0.02539 -0.001,-0.02809 -0.0041,-0.05946 -0.0059,-0.08594 v -0.0039 c -1.15e-4,-0.0018 1.06e-4,-0.0042 0,-0.0059 z" />
  <path
     style="fill:#000000;fill-opacity:1;stroke-width:0.00390625"
     d="m 60.939893,80.473633 c -0.01279,-1.005429 -0.03,-1.803305 -0.05125,-2.375977 -0.0059,-0.159253 -0.0076,-0.183973 -0.01329,-0.191212 -0.0018,-0.0023 -0.0043,-0.02168 -0.0057,-0.04316 -0.0014,-0.02148 -0.01062,-0.10209 -0.0206,-0.179123 -0.01331,-0.102771 -0.01695,-0.1408 -0.01365,-0.142838 0.0032,-0.002 0.0034,-0.0062 7.2e-4,-0.01424 -0.0021,-0.0063 -0.0093,-0.0508 -0.01599,-0.09888 -0.0067,-0.04808 -0.01826,-0.123667 -0.02565,-0.167968 -0.0074,-0.0443 -0.01424,-0.08734 -0.01522,-0.09565 -0.01197,-0.101235 -0.09991,-0.572985 -0.150831,-0.809121 -0.06237,-0.289258 -0.142005,-0.607888 -0.220309,-0.881497 -0.01609,-0.05624 -0.02926,-0.103707 -0.02926,-0.105492 0,-0.0018 0.0072,-0.0032 0.01599,-0.0032 0.01292,0 0.0164,0.0016 0.01812,0.0081 0.0015,0.0056 0.0031,0.0067 0.0051,0.0034 0.004,-0.0064 0.01682,0.03719 0.01633,0.05552 -2.36e-4,0.0089 0.0017,0.0151 0.005,0.0164 0.003,0.0011 0.0066,0.0088 0.0079,0.01694 0.0014,0.0082 0.0051,0.02061 0.0083,0.02765 0.0032,0.007 0.0047,0.01595 0.0035,0.0198 -0.0012,0.0039 3.07e-4,0.01392 0.0034,0.02236 0.0037,0.01 0.0058,0.01262 0.0062,0.0075 2.95e-4,-0.0043 0.003,8.7e-5 0.0061,0.0098 0.0067,0.02128 0.0067,0.02061 0.0014,0.01735 -0.0027,-0.0017 -0.0037,8.4e-5 -0.0027,0.0047 8.72e-4,0.004 0.0037,0.0069 0.0062,0.0063 0.0026,-5.37e-4 0.0047,6.37e-4 0.0047,0.0026 0,0.002 0.0012,0.0067 0.0026,0.01041 0.0018,0.0046 0.0012,0.0059 -0.002,0.004 -0.0051,-0.0031 -0.0059,0.0014 -0.0021,0.01132 0.002,0.0053 0.0032,0.0055 0.0062,0.0013 0.0025,-0.0035 0.003,-0.0011 0.0015,0.0074 -0.0027,0.01597 8.95e-4,0.02755 0.0063,0.0199 0.0024,-0.0034 0.0028,-1.22e-4 0.0012,0.0095 -0.0019,0.01147 -10e-4,0.01523 0.0039,0.01713 0.0043,0.0017 0.0056,0.0052 0.0041,0.01139 -0.0013,0.0051 -8e-6,0.0112 0.0029,0.01412 0.0065,0.0065 0.01451,0.03742 0.01166,0.04483 -0.0012,0.0031 4.44e-4,0.0086 0.0036,0.01224 0.0031,0.0037 0.0058,0.01339 0.006,0.02159 1.3e-4,0.0082 0.0028,0.01786 0.006,0.02148 0.0076,0.0087 0.01083,0.01995 0.01267,0.04464 9.77e-4,0.01313 0.0038,0.0221 0.008,0.02515 0.0043,0.0031 0.0064,0.01013 0.0063,0.02054 -1.29e-4,0.0093 0.0023,0.01828 0.0059,0.02187 0.0035,0.0035 0.006,0.0125 0.0059,0.02152 -1.18e-4,0.0085 0.0013,0.01545 0.0031,0.01545 0.0042,0 0.0096,0.02245 0.0083,0.03449 -5.62e-4,0.005 0.0015,0.01204 0.0047,0.01563 0.006,0.0069 0.01287,0.03334 0.0166,0.06407 0.0012,0.01017 0.0045,0.01984 0.0073,0.02148 0.006,0.0036 0.01969,0.05692 0.01858,0.07235 -8.49e-4,0.01182 0.01755,0.08838 0.02275,0.09468 0.0047,0.0057 0.01632,0.05244 0.014,0.0562 -0.0028,0.0045 0.0052,0.03172 0.0093,0.03172 0.0043,0 0.0094,0.02879 0.0084,0.04744 -4.14e-4,0.0079 0.0017,0.01666 0.0047,0.01971 0.0076,0.0076 0.01203,0.02269 0.0067,0.02269 -0.0054,0 -7.76e-4,0.01994 0.0058,0.02539 0.007,0.0058 0.01089,0.02607 0.0056,0.02934 -0.0031,0.0019 -0.0025,0.0047 0.0021,0.0093 0.0043,0.0043 0.0057,0.0098 0.0042,0.01591 -0.003,0.01195 0.0079,0.06428 0.01502,0.07225 0.0068,0.0076 0.01232,0.03534 0.0071,0.03534 -0.0035,0 -0.0028,0.01394 0.0015,0.02723 0.0014,0.0045 0.0025,0.0047 0.0049,7.62e-4 0.0019,-0.003 0.0048,0.0055 0.0075,0.02145 0.003,0.01792 0.0031,0.02723 3.86e-4,0.0289 -0.0022,0.0014 -0.0029,0.0074 -0.0015,0.01382 0.0053,0.02357 0.0065,0.02623 0.0095,0.02131 0.0017,-0.0028 0.004,0.002 0.0056,0.01186 0.0017,0.01064 0.0011,0.01755 -0.0017,0.01926 -0.003,0.0019 -0.0032,0.0067 -5.03e-4,0.01595 l 0.0038,0.01328 8.18e-4,-0.01172 c 4.49e-4,-0.0064 0.004,0.0067 0.0079,0.0293 0.0083,0.04802 0.0089,0.05592 0.0041,0.05296 -0.0054,-0.0033 -2.14e-4,0.0304 0.0053,0.03493 0.0053,0.0043 0.01315,0.06593 0.01273,0.09961 -3.56e-4,0.0281 0.0048,0.0613 0.0086,0.05516 0.0044,-0.0071 0.01296,0.08233 0.0099,0.102879 -0.0019,0.01249 -0.0013,0.01774 0.0019,0.01774 0.0032,0 0.0038,0.0053 0.0019,0.01801 -0.0018,0.01168 -0.0012,0.01895 0.0016,0.02067 0.0025,0.0015 0.0068,0.03092 0.01006,0.06837 0.0056,0.06401 0.01011,0.0876 0.01006,0.05278 -5.7e-5,-0.04367 -0.02075,-0.248659 -0.03941,-0.390299 -0.03318,-0.251902 -0.0779,-0.464469 -0.183697,-0.873047 -0.05228,-0.201896 -0.132842,-0.491101 -0.182541,-0.655274 l -0.01153,-0.03809 h 3.050395 3.050395 v 2.658203 2.658204 h -2.792403 -2.792402 z m -0.06822,-2.733399 -0.0035,-0.0293 -4.79e-4,0.03125 c -2.63e-4,0.01719 8.27e-4,0.04355 0.0024,0.05859 l 0.0029,0.02734 0.001,-0.0293 c 5.75e-4,-0.01611 -5.15e-4,-0.04248 -0.0024,-0.05859 z m -0.01569,-0.263672 -0.0035,-0.02344 -4.76e-4,0.02214 c -2.62e-4,0.01218 7.9e-4,0.02536 0.0023,0.0293 0.0047,0.01193 0.0055,-0.0018 0.0016,-0.028 z m -0.01187,-0.129783 c -0.0033,-0.0057 -0.0041,-0.0045 -0.0042,0.0071 -6.6e-5,0.0077 0.0012,0.01534 0.0028,0.01698 0.0046,0.0047 0.0058,-0.01635 0.0013,-0.02404 z m -0.06809,-0.52549 c -0.0011,-0.0027 -0.002,-4.88e-4 -0.002,0.0049 0,0.0054 8.87e-4,0.0076 0.002,0.0049 0.0011,-0.0027 0.0011,-0.0071 0,-0.0098 z m -0.0039,-0.02344 c -0.0011,-0.0027 -0.002,-4.89e-4 -0.002,0.0049 0,0.0054 8.87e-4,0.0076 0.002,0.0049 0.0011,-0.0027 0.0011,-0.0071 0,-0.0098 z m -0.02344,-0.136719 c -0.0011,-0.0027 -0.002,-4.88e-4 -0.002,0.0049 0,0.0054 8.86e-4,0.0076 0.002,0.0049 0.0011,-0.0027 0.0011,-0.0071 0,-0.0098 z m -0.04297,-0.210938 c -0.0011,-0.0027 -0.002,-4.88e-4 -0.002,0.0049 0,0.0054 8.86e-4,0.0076 0.002,0.0049 0.0011,-0.0027 0.0011,-0.0071 0,-0.0098 z"
     id="path49" />
  <path
     style="fill:#000000;fill-opacity:1;stroke-width:0.00390625"
     d="m 60.941376,80.62207 c -1.05e-4,-0.209423 -0.02032,-1.383311 -0.03127,-1.815429 -0.0097,-0.383131 -0.02501,-0.838995 -0.02943,-0.876856 -0.0012,-0.01069 -0.0037,-0.02123 -0.0054,-0.02344 -0.0017,-0.0022 -0.0042,-0.02158 -0.0056,-0.04307 -0.0014,-0.02148 -0.01063,-0.102096 -0.02058,-0.179137 -0.01321,-0.102349 -0.01688,-0.14082 -0.01361,-0.142838 0.0032,-0.0019 0.0033,-0.0061 6.66e-4,-0.01422 -0.0021,-0.0063 -0.01005,-0.0554 -0.01769,-0.109115 -0.0076,-0.05371 -0.01917,-0.129297 -0.02563,-0.167969 -0.0065,-0.03867 -0.01257,-0.07754 -0.01359,-0.08637 -0.001,-0.0088 -0.01057,-0.06772 -0.02123,-0.130859 -0.09025,-0.534836 -0.209817,-1.067632 -0.34963,-1.557977 -0.0162,-0.05683 -0.02946,-0.10473 -0.02946,-0.106445 0,-0.0059 0.03138,-0.0034 0.03374,0.0027 0.0012,0.0032 0.0037,0.0049 0.0054,0.0039 0.0042,-0.0026 0.01671,0.03954 0.01648,0.05558 -1.03e-4,0.0069 0.0022,0.01454 0.0052,0.01699 0.003,0.0024 0.0064,0.01087 0.0078,0.01871 0.0013,0.0078 0.005,0.02009 0.0082,0.02722 0.0032,0.0071 0.0048,0.01575 0.0035,0.01915 -0.0032,0.0083 0.0056,0.03481 0.0095,0.02858 0.0018,-0.0029 0.0037,-5.85e-4 0.0051,0.0064 0.0012,0.0061 0.0035,0.01442 0.0051,0.01853 0.0021,0.0055 0.0016,0.0067 -0.0021,0.0044 -0.0035,-0.0021 -0.0045,-8.66e-4 -0.0034,0.0042 8.72e-4,0.004 0.0037,0.0069 0.0062,0.0063 0.0026,-5.37e-4 0.0047,6.37e-4 0.0047,0.0026 0,0.002 0.0012,0.0067 0.0026,0.01041 0.0018,0.0046 0.0012,0.0059 -0.002,0.004 -0.0051,-0.0031 -0.0059,0.0014 -0.0021,0.01132 0.002,0.0052 0.0032,0.0055 0.0062,0.0013 0.0025,-0.0036 0.0031,-0.0016 0.0018,0.0063 -0.0022,0.01387 5.72e-4,0.02261 0.0062,0.01915 0.0027,-0.0017 0.0033,0.0016 0.0017,0.0096 -0.0017,0.0084 -5.6e-4,0.01405 0.0036,0.01817 0.0034,0.0035 0.005,0.0091 0.0036,0.01341 -0.0013,0.0041 2.2e-5,0.0098 0.0029,0.01271 0.0066,0.0066 0.01467,0.03748 0.01179,0.04496 -0.0012,0.0031 4.97e-4,0.0086 0.0037,0.01224 0.0032,0.0037 0.0059,0.01211 0.0061,0.01873 1.21e-4,0.0066 0.004,0.01932 0.0087,0.02822 0.0046,0.0089 0.0089,0.0237 0.0095,0.03288 0.0017,0.02547 0.0017,0.02548 0.0084,0.03222 0.0038,0.0038 0.0062,0.0125 0.0061,0.02173 -1.24e-4,0.009 0.0023,0.01794 0.0059,0.02148 0.0035,0.0035 0.006,0.0125 0.0059,0.02152 -1.18e-4,0.0085 0.0013,0.01545 0.0031,0.01545 0.004,0 0.0097,0.02244 0.0083,0.03247 -5.55e-4,0.0039 0.0015,0.01093 0.0046,0.01563 0.0061,0.0094 0.01319,0.03743 0.01666,0.06609 0.0012,0.01017 0.0045,0.01984 0.0073,0.02148 0.0058,0.0034 0.01974,0.05676 0.01863,0.07111 -8.77e-4,0.01137 0.01752,0.08965 0.02248,0.09565 0.0048,0.0058 0.0166,0.05261 0.01422,0.05646 -0.0028,0.0045 0.0052,0.03172 0.0093,0.03172 0.0043,0 0.0094,0.02879 0.0084,0.04744 -4.14e-4,0.0079 0.0017,0.01666 0.0047,0.01971 0.0077,0.0077 0.01202,0.02269 0.0065,0.02269 -0.0052,0 -0.0016,0.01454 0.0058,0.02344 0.0074,0.0089 0.01101,0.02811 0.0059,0.03129 -0.0031,0.0019 -0.0024,0.0047 0.0021,0.0093 0.0041,0.0041 0.0057,0.0098 0.0043,0.01509 -0.0031,0.01198 0.0086,0.06594 0.01615,0.07436 0.0042,0.0047 0.0061,0.01364 0.0058,0.02734 -5.72e-4,0.02582 0.0023,0.04125 0.0064,0.03458 0.0018,-0.0029 0.0048,0.0059 0.0074,0.02154 0.003,0.01792 0.0031,0.02723 3.86e-4,0.0289 -0.0022,0.0014 -0.0029,0.0074 -0.0015,0.01382 0.0053,0.02357 0.0065,0.02623 0.0095,0.02131 0.0017,-0.0028 0.004,0.002 0.0056,0.01186 0.0017,0.01064 0.0011,0.01755 -0.0017,0.01926 -0.003,0.0019 -0.0032,0.0067 -5.03e-4,0.01595 l 0.0038,0.01328 8.31e-4,-0.01172 c 4.57e-4,-0.0064 0.004,0.0067 0.008,0.0293 0.0082,0.04742 0.0089,0.05598 0.004,0.05296 -0.0054,-0.0033 -2.14e-4,0.0304 0.0053,0.03493 0.0064,0.0052 0.01084,0.03799 0.01191,0.08789 9.35e-4,0.04363 0.0045,0.06769 0.0096,0.06456 0.0017,-0.0011 0.0055,0.02222 0.0085,0.05172 0.003,0.0295 0.0041,0.05422 0.0025,0.05494 -0.0046,0.002 -0.0036,0.01628 0.0012,0.01628 0.0028,0 0.0033,0.0054 0.0016,0.01576 -0.0016,0.0094 -9.92e-4,0.01777 0.0015,0.02077 0.0023,0.0028 0.0069,0.03465 0.01019,0.07089 0.0059,0.06439 0.0098,0.0858 0.0098,0.05359 0,-0.0459 -0.02488,-0.286712 -0.04328,-0.418815 -0.03336,-0.23962 -0.07265,-0.426637 -0.165975,-0.790171 -0.06358,-0.247651 -0.138452,-0.518551 -0.196456,-0.710806 l -0.01149,-0.03809 h 3.050395 3.050395 v 2.658203 2.658204 h -2.792969 -2.792969 z m -0.06967,-2.879883 -0.0035,-0.02734 -4.94e-4,0.0297 c -2.72e-4,0.01633 8.24e-4,0.04094 0.0024,0.05469 l 0.0029,0.02499 0.0011,-0.02734 c 6.04e-4,-0.01504 -4.92e-4,-0.03965 -0.0024,-0.05469 z m -0.01577,-0.261718 -0.0034,-0.02344 -4.76e-4,0.02019 c -2.62e-4,0.0111 7.25e-4,0.02332 0.0022,0.02715 0.0045,0.01176 0.0053,7.3e-4 0.0017,-0.0239 z m -0.01182,-0.13369 c -0.0033,-0.0057 -0.0041,-0.0045 -0.0042,0.0071 -6.6e-5,0.0077 0.0012,0.01534 0.0028,0.01698 0.0046,0.0047 0.0058,-0.01635 0.0013,-0.02404 z m -0.06801,-0.525246 c -0.0012,-0.0031 -0.0022,-0.0022 -0.0024,0.0024 -1.7e-4,0.0041 7.53e-4,0.0064 0.0021,0.0051 0.0013,-0.0013 0.0014,-0.0047 3.08e-4,-0.0075 z m -0.0039,-0.02344 c -0.0012,-0.0031 -0.0022,-0.0022 -0.0024,0.0024 -1.7e-4,0.0041 7.53e-4,0.0064 0.0021,0.0051 0.0013,-0.0013 0.0014,-0.0047 3.09e-4,-0.0075 z m -0.02344,-0.136719 c -0.0012,-0.0031 -0.0022,-0.0022 -0.0024,0.0024 -1.69e-4,0.0041 7.54e-4,0.0064 0.0021,0.0051 0.0013,-0.0013 0.0014,-0.0047 3.08e-4,-0.0075 z m -0.04297,-0.210938 c -0.0012,-0.0031 -0.0022,-0.0022 -0.0024,0.0024 -1.69e-4,0.0041 7.54e-4,0.0064 0.0021,0.0051 0.0013,-0.0013 0.0014,-0.0047 3.08e-4,-0.0075 z"
     id="path50" />
  <path
     style="fill:#000000;fill-opacity:1;stroke-width:0.00390625"
     d="m 60.939866,80.485352 c -0.0065,-0.489347 -0.01452,-0.969852 -0.02193,-1.32129 -0.01282,-0.607939 -0.03211,-1.212332 -0.03965,-1.242187 -0.0022,-0.0086 -0.0063,-0.04023 -0.0092,-0.07031 -0.0029,-0.03008 -0.01262,-0.111567 -0.02167,-0.181088 -0.01204,-0.09249 -0.01525,-0.127143 -0.01198,-0.129166 0.0031,-0.0019 0.0034,-0.0062 7.15e-4,-0.01422 -0.0021,-0.0063 -0.01099,-0.06156 -0.01982,-0.122787 -0.0088,-0.06123 -0.02044,-0.136817 -0.02579,-0.167969 -0.0053,-0.03115 -0.01045,-0.06323 -0.01134,-0.07127 -0.007,-0.06342 -0.08039,-0.467497 -0.121258,-0.667435 -0.07114,-0.348086 -0.177546,-0.779835 -0.265682,-1.078051 -0.0074,-0.0249 -0.01338,-0.04731 -0.01338,-0.0498 0,-0.007 0.03101,-0.0058 0.03374,0.0013 0.0012,0.0032 0.0037,0.0049 0.0056,0.0038 0.0043,-0.0027 0.01676,0.03941 0.01641,0.05567 -1.46e-4,0.0069 0.0021,0.01454 0.0051,0.01699 0.003,0.0024 0.0064,0.01087 0.0078,0.01871 0.0013,0.0078 0.005,0.02009 0.0082,0.02722 0.0032,0.0071 0.0049,0.01535 0.0038,0.01826 -0.003,0.0079 0.0054,0.03553 0.009,0.02963 0.002,-0.0032 0.0038,-0.001 0.0052,0.0062 0.0012,0.0061 0.0035,0.01442 0.0051,0.01853 0.0022,0.0057 0.0016,0.0067 -0.0023,0.0042 -0.0039,-0.0024 -0.0046,-0.0015 -0.0026,0.0036 0.0014,0.0038 0.0026,0.0077 0.0026,0.0087 0,0.001 0.0018,7.78e-4 0.0039,-5.5e-4 0.0021,-0.0013 0.0039,-6.96e-4 0.0039,0.0014 0,0.0021 0.0012,0.0069 0.0026,0.01064 0.0019,0.005 0.0013,0.006 -0.0026,0.0036 -0.0039,-0.0024 -0.0046,-0.0015 -0.0026,0.0036 0.0014,0.0038 0.0026,0.0077 0.0026,0.0087 0,0.001 0.002,6.2e-4 0.0045,-9e-4 0.0031,-0.0019 0.0038,5.87e-4 0.0024,0.0083 -0.0025,0.01332 2.65e-4,0.02224 0.0059,0.01875 0.0027,-0.0017 0.0033,0.0016 0.0017,0.0096 -0.0017,0.0084 -5.6e-4,0.01405 0.0036,0.01817 0.0034,0.0035 0.005,0.0091 0.0036,0.01341 -0.0013,0.0041 2.2e-5,0.0098 0.0029,0.01271 0.0061,0.0061 0.01505,0.03839 0.012,0.04332 -0.0011,0.0018 4.6e-4,0.0072 0.0035,0.01196 0.0031,0.0047 0.0057,0.01403 0.0059,0.02066 1.71e-4,0.0066 0.004,0.01919 0.0086,0.02794 0.0072,0.01388 0.0098,0.02559 0.0114,0.05251 2.18e-4,0.0036 0.0032,0.0094 0.0066,0.01281 0.0035,0.0035 0.0062,0.01262 0.0062,0.02079 -2.1e-5,0.008 0.0026,0.01751 0.0059,0.02114 0.0032,0.0036 0.0059,0.01316 0.0059,0.02118 0,0.008 0.0025,0.01704 0.0055,0.02005 0.0053,0.0053 0.0071,0.01499 0.0056,0.02957 -4.06e-4,0.0039 0.0018,0.01093 0.0048,0.01563 0.0061,0.0094 0.01319,0.03743 0.01666,0.06609 0.0012,0.01017 0.0045,0.01984 0.0073,0.02148 0.0057,0.0034 0.01974,0.05669 0.01865,0.07084 -8.21e-4,0.01067 0.01804,0.09037 0.02276,0.09621 0.0046,0.0057 0.0162,0.05247 0.01391,0.05617 -0.0028,0.0045 0.0052,0.03172 0.0093,0.03172 0.0043,0 0.0094,0.02879 0.0084,0.04744 -4.14e-4,0.0079 0.0017,0.01666 0.0047,0.01971 0.0077,0.0077 0.01202,0.02269 0.0065,0.02269 -0.0052,0 -0.0016,0.01454 0.0058,0.02344 0.0074,0.0089 0.01101,0.02811 0.0059,0.03129 -0.0031,0.0019 -0.0024,0.0047 0.0021,0.0093 0.004,0.004 0.0057,0.0099 0.0044,0.01484 -0.0031,0.01172 0.0087,0.06625 0.01616,0.07462 0.0041,0.0047 0.006,0.01378 0.0057,0.02734 -5.72e-4,0.02582 0.0023,0.04125 0.0064,0.03458 0.0018,-0.0029 0.0048,0.0059 0.0074,0.02136 0.0024,0.01444 0.0032,0.02816 0.0017,0.03049 -0.0027,0.0043 -0.0023,0.01231 0.0014,0.02942 0.0015,0.0067 0.003,0.0081 0.0052,0.0046 0.002,-0.0032 0.0041,0.0011 0.0057,0.0116 0.0016,0.01024 0.0011,0.01757 -0.0014,0.01913 -0.0025,0.0016 -0.003,0.0078 -0.0013,0.01595 l 0.0028,0.01341 0.0022,-0.01172 c 0.0016,-0.0084 0.0042,0.0015 0.0093,0.03503 0.0043,0.02814 0.0056,0.04725 0.0034,0.04799 -0.0046,0.0015 5e-4,0.03211 0.0059,0.03561 0.0044,0.0029 0.01173,0.06521 0.01201,0.102019 2.36e-4,0.0304 0.0038,0.05178 0.0082,0.04906 0.0018,-0.0011 0.0057,0.02215 0.0087,0.05165 0.003,0.0295 0.0041,0.05422 0.0025,0.05494 -0.0046,0.002 -0.0036,0.01628 0.0012,0.01628 0.0028,0 0.0033,0.0054 0.0016,0.01576 -0.0016,0.0094 -9.92e-4,0.01777 0.0015,0.02077 0.0023,0.0028 0.0069,0.03465 0.01019,0.07089 0.0033,0.03623 0.0071,0.06688 0.0083,0.0681 0.0027,0.0026 -9.58e-4,-0.06499 -0.0062,-0.114968 -0.002,-0.01934 -0.0057,-0.05713 -0.0081,-0.08398 -0.01794,-0.197964 -0.05801,-0.451345 -0.103781,-0.65625 -0.05646,-0.252752 -0.171352,-0.689544 -0.262019,-0.996094 -0.0162,-0.05478 -0.03089,-0.104443 -0.03263,-0.110351 l -0.0032,-0.01074 h 3.050508 3.050509 v 2.658203 2.658204 h -2.792427 -2.792426 z m -0.06815,-2.739258 -0.0035,-0.02734 -4.94e-4,0.02579 c -2.72e-4,0.01419 8.24e-4,0.03704 0.0024,0.05078 l 0.0029,0.02499 0.0011,-0.02344 c 6.06e-4,-0.01289 -4.9e-4,-0.03574 -0.0024,-0.05078 z m -0.01571,-0.263899 -0.0035,-0.02126 -4.57e-4,0.01824 c -2.51e-4,0.01003 7.45e-4,0.02137 0.0022,0.02519 0.0045,0.01183 0.0055,1.46e-4 0.0018,-0.02217 z m -0.01195,-0.133843 c -0.003,-0.003 -0.0042,-8.35e-4 -0.0042,0.0076 0,0.01542 0.0055,0.02094 0.0071,0.0072 7.05e-4,-0.0058 -6.13e-4,-0.01251 -0.0029,-0.01483 z m -0.06795,-0.526819 c -0.0012,-0.0031 -0.0022,-0.0022 -0.0024,0.0024 -1.7e-4,0.0041 7.53e-4,0.0064 0.0021,0.0051 0.0013,-0.0013 0.0014,-0.0047 3.08e-4,-0.0075 z m -0.0039,-0.02344 c -0.0012,-0.0031 -0.0022,-0.0022 -0.0024,0.0024 -1.7e-4,0.0041 7.53e-4,0.0064 0.0021,0.0051 0.0013,-0.0013 0.0014,-0.0047 3.09e-4,-0.0075 z"
     id="path51" />
  <path
     style="fill:#000000;fill-opacity:1;stroke-width:0.00390625"
     d="m 60.939861,80.493164 c -0.0071,-0.511368 -0.01494,-0.985515 -0.02193,-1.319336 -0.01254,-0.598857 -0.03192,-1.210825 -0.03951,-1.248047 -0.0022,-0.01074 -0.0064,-0.04414 -0.0093,-0.07422 -0.0029,-0.03008 -0.01255,-0.110058 -0.02134,-0.177734 -0.0088,-0.06768 -0.01507,-0.126728 -0.01396,-0.131227 0.002,-0.0081 -0.024,-0.191467 -0.04313,-0.30432 -0.0055,-0.03223 -0.01078,-0.06562 -0.01182,-0.07422 -0.0068,-0.05648 -0.05543,-0.330988 -0.09375,-0.529296 -0.0718,-0.371559 -0.170778,-0.786229 -0.275291,-1.153374 -0.01698,-0.05965 -0.03087,-0.110186 -0.03087,-0.112305 0,-0.0065 0.0312,-0.0046 0.03374,0.002 0.0012,0.0032 0.0037,0.0049 0.0056,0.0038 0.0041,-0.0026 0.01661,0.03889 0.01649,0.05485 -4.9e-5,0.0064 0.0022,0.01436 0.0049,0.01758 0.0028,0.0032 0.0062,0.01113 0.0077,0.01758 0.0015,0.0064 0.006,0.02095 0.01002,0.03223 0.0041,0.01128 0.0058,0.02051 0.0039,0.02051 -0.002,0 -0.0022,0.0047 -4.79e-4,0.01074 0.0017,0.0059 0.0049,0.01036 0.0071,0.0099 0.0022,-4.65e-4 0.0052,0.0039 0.0066,0.0098 0.0014,0.0058 0.0035,0.01391 0.0047,0.01794 0.0016,0.0053 7.78e-4,0.0065 -0.0028,0.0042 -0.0036,-0.0022 -0.0043,-0.0012 -0.0024,0.0037 0.0014,0.0038 0.0026,0.0077 0.0026,0.0087 0,10e-4 0.0018,7.78e-4 0.0039,-5.5e-4 0.0021,-0.0013 0.0039,-6.96e-4 0.0039,0.0014 0,0.0021 0.0012,0.0069 0.0026,0.01064 0.0019,0.005 0.0013,0.006 -0.0026,0.0036 -0.0039,-0.0024 -0.0046,-0.0015 -0.0026,0.0036 0.0014,0.0038 0.0026,0.0077 0.0026,0.0087 0,0.001 0.002,6.2e-4 0.0045,-9e-4 0.0031,-0.0019 0.0038,5.87e-4 0.0024,0.0083 -0.0025,0.01332 2.65e-4,0.02224 0.0059,0.01875 0.0027,-0.0017 0.0033,0.0016 0.0017,0.0096 -0.0017,0.0084 -5.6e-4,0.01405 0.0036,0.01817 0.0034,0.0035 0.005,0.0091 0.0036,0.01341 -0.0013,0.0041 -3.3e-5,0.0098 0.0028,0.01271 0.0067,0.0069 0.01571,0.03751 0.01253,0.04266 -0.0014,0.0022 3.17e-4,0.0083 0.0037,0.01345 0.0034,0.0052 0.0062,0.01474 0.0062,0.02119 0,0.0065 0.0036,0.01865 0.008,0.0271 0.007,0.01341 0.0095,0.02516 0.01112,0.05198 2.18e-4,0.0036 0.0031,0.0093 0.0065,0.01268 0.0034,0.0034 0.0062,0.01184 0.0063,0.01883 1.01e-4,0.007 0.0027,0.01679 0.0059,0.02178 0.0031,0.005 0.0058,0.01465 0.006,0.02148 1.78e-4,0.0068 0.0029,0.01634 0.006,0.02112 0.0031,0.0048 0.0057,0.01533 0.0056,0.02344 -8e-6,0.0081 0.0023,0.01913 0.0052,0.0245 0.0082,0.01529 0.01357,0.0351 0.01357,0.04964 0,0.0082 0.0016,0.01236 0.0041,0.01081 0.0026,-0.0016 0.0032,9.06e-4 0.0017,0.007 -0.0015,0.0058 -2.64e-4,0.01166 0.0031,0.01503 0.0063,0.0063 0.02029,0.05946 0.01924,0.07311 -7.96e-4,0.01035 0.01695,0.08515 0.02253,0.09499 0.0055,0.0097 0.01637,0.05392 0.01413,0.05753 -0.0028,0.0045 0.0052,0.03172 0.0093,0.03172 0.0038,0 0.008,0.02123 0.0095,0.04865 5.72e-4,0.01014 0.0029,0.0196 0.0051,0.02103 0.0057,0.0036 0.01036,0.02017 0.0057,0.02017 -0.0051,0 -9.51e-4,0.01593 0.0064,0.02446 0.0034,0.004 0.006,0.01432 0.006,0.02441 0,0.0096 0.0017,0.01753 0.0037,0.01753 0.002,0 0.0028,0.0048 0.0016,0.01074 -0.0027,0.01396 0.0074,0.06245 0.01574,0.07511 0.0041,0.0062 0.0063,0.01712 0.006,0.02938 -5.81e-4,0.02571 0.0023,0.04041 0.0066,0.03347 0.0039,-0.0064 0.0093,0.02707 0.0097,0.06028 1.63e-4,0.01517 0.0018,0.02315 0.0047,0.02262 0.0054,-10e-4 0.01074,0.02932 0.0062,0.03544 -0.0018,0.0024 -0.0021,0.0097 -5.79e-4,0.01617 l 0.0027,0.01172 9.41e-4,-0.01172 c 5.18e-4,-0.0064 0.0041,0.0067 0.008,0.0293 0.0041,0.02394 0.0062,0.04925 0.0049,0.06079 -0.0016,0.01431 -5.98e-4,0.02133 0.0035,0.0254 0.0032,0.0032 0.0076,0.02145 0.01037,0.04272 0.0026,0.0204 0.0056,0.0412 0.0067,0.04622 0.0012,0.0057 4.29e-4,0.0082 -0.0021,0.0066 -0.0026,-0.0016 -0.0033,0.0039 -0.0019,0.01627 0.0039,0.03496 0.006,0.04437 0.0092,0.04238 0.0018,-0.0011 0.0057,0.02215 0.0087,0.05165 0.003,0.0295 0.0041,0.05422 0.0025,0.05494 -0.0046,0.002 -0.0036,0.01628 0.0012,0.01628 0.0028,0 0.0033,0.0054 0.0016,0.01576 -0.0016,0.0094 -9.92e-4,0.01777 0.0015,0.02077 0.0023,0.0028 0.0069,0.03465 0.01019,0.07089 0.0068,0.07386 0.01161,0.09193 0.0078,0.02922 -0.011,-0.182851 -0.05054,-0.483392 -0.09,-0.684087 -0.0487,-0.247726 -0.181952,-0.764509 -0.301013,-1.16739 -0.01175,-0.03975 -0.02212,-0.07446 -0.02304,-0.07715 -0.0013,-0.0039 0.61015,-0.0049 3.048972,-0.0049 h 3.050659 v 2.658203 2.658204 H 63.73495 60.94251 Z M 60.871718,77.75 l -0.0035,-0.02734 -4.6e-4,0.02539 c -2.53e-4,0.01396 8.42e-4,0.03506 0.0024,0.04687 l 0.0029,0.02148 0.0011,-0.01953 c 6.08e-4,-0.01074 -4.88e-4,-0.03184 -0.0024,-0.04687 z m -0.01607,-0.267594 -0.0031,-0.02147 -4.87e-4,0.01986 c -4.16e-4,0.01696 0.0021,0.02766 0.0057,0.02407 5.46e-4,-5.46e-4 -4.06e-4,-0.01065 -0.0021,-0.02246 z m -0.008,-0.120101 c -3.2e-5,-0.0038 -0.0018,-0.0095 -0.0038,-0.0127 -0.0029,-0.0044 -0.0038,-0.0028 -0.0038,0.0068 -3.3e-5,0.007 0.0017,0.0127 0.0038,0.0127 0.0021,0 0.0039,-0.0031 0.0038,-0.0068 z"
     id="path52" />
  <path
     style="fill:#000000;fill-opacity:1;stroke-width:0.00390625"
     d="m 60.941371,80.637695 c -3.9e-5,-0.05017 -0.0057,-0.445931 -0.01168,-0.811523 -0.01595,-0.981149 -0.04162,-1.892989 -0.05397,-1.916844 -0.002,-0.0038 -0.0048,-0.02456 -0.0064,-0.04605 -0.0015,-0.02148 -0.01059,-0.100586 -0.02018,-0.175781 -0.0096,-0.07519 -0.01652,-0.140446 -0.0154,-0.145003 0.0019,-0.0078 -0.02747,-0.213486 -0.04516,-0.315935 -0.0044,-0.02578 -0.0089,-0.05391 -0.0098,-0.0625 -9.67e-4,-0.0086 -0.01145,-0.07275 -0.02329,-0.142578 -0.0908,-0.535304 -0.208076,-1.056707 -0.349044,-1.551814 -0.01515,-0.05321 -0.02754,-0.09847 -0.02754,-0.100586 0,-0.0065 0.0312,-0.0046 0.03374,0.002 0.0012,0.0032 0.0037,0.0049 0.0056,0.0038 0.0037,-0.0023 0.0154,0.03451 0.01719,0.0541 6.28e-4,0.0069 0.004,0.01775 0.0074,0.02419 0.0035,0.0064 0.0063,0.01458 0.0063,0.01808 1.3e-5,0.0035 0.0028,0.01312 0.0063,0.02139 0.0035,0.0083 0.0065,0.0221 0.0068,0.03075 3.35e-4,0.0095 0.0023,0.01538 0.005,0.01487 0.0025,-4.65e-4 0.0056,0.0039 0.007,0.0098 0.0014,0.0058 0.0035,0.01391 0.0047,0.01794 0.0016,0.0053 7.78e-4,0.0065 -0.0028,0.0042 -0.0036,-0.0022 -0.0043,-0.0012 -0.0024,0.0037 0.0014,0.0038 0.0026,0.0077 0.0026,0.0087 0,0.001 0.0018,7.78e-4 0.0039,-5.5e-4 0.0021,-0.0013 0.0039,-6.96e-4 0.0039,0.0014 0,0.0021 0.0012,0.0069 0.0026,0.01064 0.0019,0.005 0.0013,0.006 -0.0026,0.0036 -0.0039,-0.0024 -0.0046,-0.0015 -0.0026,0.0036 0.0014,0.0038 0.0026,0.0077 0.0026,0.0087 0,0.001 0.002,6.2e-4 0.0045,-9e-4 0.0031,-0.0019 0.0038,5.87e-4 0.0024,0.0083 -0.0024,0.01275 2.02e-4,0.02228 0.0053,0.01913 0.0031,-0.0019 0.0055,0.01006 0.0038,0.01922 -3.3e-4,0.0018 10e-4,0.0054 0.003,0.0078 0.002,0.0025 0.0036,0.0095 0.0036,0.01566 -3.2e-5,0.0062 0.0016,0.01231 0.0035,0.01367 0.0052,0.0036 0.01381,0.03511 0.01089,0.03985 -0.0014,0.0022 3.17e-4,0.0083 0.0037,0.01345 0.0034,0.0052 0.0062,0.01474 0.0062,0.02119 0,0.0065 0.0036,0.01859 0.0079,0.02696 0.0044,0.0084 0.009,0.02469 0.01029,0.03625 0.0013,0.01157 0.0049,0.02393 0.0079,0.02747 0.0031,0.0035 0.0057,0.01233 0.0058,0.01953 1.06e-4,0.0072 0.0028,0.01717 0.0059,0.02215 0.0031,0.005 0.0058,0.01465 0.006,0.02148 1.78e-4,0.0068 0.0029,0.01634 0.006,0.02112 0.0031,0.0048 0.0057,0.01533 0.0056,0.02344 -8e-6,0.0081 0.0023,0.01913 0.0052,0.0245 0.0082,0.01529 0.01357,0.0351 0.01357,0.04964 0,0.0082 0.0016,0.01236 0.0041,0.01081 0.0026,-0.0016 0.0032,9.06e-4 0.0017,0.007 -0.0015,0.0058 -2.7e-4,0.01166 0.003,0.01498 0.0065,0.0066 0.01797,0.05041 0.0205,0.07871 0.0019,0.02092 0.01547,0.07289 0.02734,0.10447 0.006,0.01597 0.0091,0.03429 0.0096,0.05734 1.08e-4,0.0047 0.0027,0.01102 0.0058,0.01409 0.0062,0.0062 0.01001,0.02284 0.01158,0.05098 6.07e-4,0.01087 0.0034,0.02031 0.0065,0.02223 0.0034,0.0021 0.0052,0.0094 0.0047,0.02005 -4.16e-4,0.01041 0.0016,0.01923 0.0054,0.02339 0.0033,0.0037 0.0065,0.01339 0.0071,0.0216 5.71e-4,0.0082 0.0024,0.018 0.004,0.02176 0.0016,0.0038 0.002,0.0092 9.05e-4,0.01212 -0.0032,0.0084 0.0081,0.06119 0.01558,0.07241 0.0046,0.007 0.0068,0.01828 0.0069,0.03559 1.16e-4,0.01748 0.0016,0.02511 0.0048,0.02449 0.0057,-0.0011 0.01086,0.02822 0.0099,0.05559 -7.75e-4,0.02163 0.002,0.03434 0.0067,0.03138 0.0044,-0.0027 0.0077,0.02106 0.0058,0.04143 -0.0011,0.01198 -6.77e-4,0.01415 0.0015,0.0073 0.0043,-0.0137 0.01653,0.07024 0.01372,0.09396 -0.0015,0.01266 -4.69e-4,0.01949 0.0035,0.02351 0.006,0.006 0.01971,0.09454 0.01492,0.09644 -0.0015,5.89e-4 -0.0021,0.0067 -0.0013,0.01367 0.0042,0.03759 0.0058,0.04577 0.0087,0.044 0.0047,-0.0029 0.01501,0.104722 0.01031,0.107992 -0.0025,0.0017 -0.0023,0.0059 5.02e-4,0.01172 0.0073,0.0151 0.0089,0.02272 0.0049,0.02272 -0.0049,0 -0.0049,0.01292 -8e-5,0.01777 0.002,0.002 0.0065,0.0326 0.0098,0.0679 0.0066,0.06954 0.01242,0.09186 0.0082,0.03151 -0.0046,-0.0658 -0.02159,-0.234134 -0.03166,-0.314453 -0.03644,-0.290512 -0.08597,-0.527568 -0.204877,-0.980469 -0.05341,-0.203433 -0.1638,-0.595563 -0.177872,-0.631836 -0.0025,-0.0065 0.144237,-0.0068 3.048548,-0.0068 h 3.051199 v 2.658203 2.658204 h -2.792969 -2.792969 z m -0.06965,-2.883789 -0.0035,-0.02734 -4.6e-4,0.02148 c -2.53e-4,0.01182 8.42e-4,0.03115 0.0024,0.04297 0.0028,0.02066 0.0029,0.02088 0.004,0.0059 6.1e-4,-0.0086 -4.86e-4,-0.02793 -0.0024,-0.04297 z m -0.016,-0.269655 c -0.003,-0.01787 -0.0033,-0.01827 -0.0037,-0.0051 -4.33e-4,0.0135 0.0029,0.02855 0.0057,0.02576 6.97e-4,-6.98e-4 -1.92e-4,-0.01 -0.002,-0.02068 z m -0.01159,-0.133542 c -0.0036,-0.0061 -0.0041,-0.0057 -0.0042,0.0031 -6.6e-5,0.0055 0.0012,0.01142 0.0028,0.01305 0.0047,0.0047 0.0058,-0.0085 0.0014,-0.01618 z"
     id="path53" />
  <path
     style="fill:#000000;fill-opacity:1;stroke-width:0.00390625"
     d="m 60.941376,80.643555 c -7.8e-5,-0.09975 -0.01378,-0.957345 -0.02152,-1.34668 -0.01283,-0.645704 -0.03269,-1.302168 -0.04125,-1.363281 -0.0021,-0.01504 -0.0064,-0.05195 -0.0096,-0.08203 -0.0032,-0.03008 -0.01288,-0.110058 -0.02157,-0.177734 -0.0087,-0.06768 -0.01495,-0.126329 -0.0139,-0.130341 0.0019,-0.0073 -0.02405,-0.19069 -0.04295,-0.303253 -0.0056,-0.0333 -0.01096,-0.06758 -0.01193,-0.07617 -9.68e-4,-0.0086 -0.0096,-0.06221 -0.01925,-0.11914 -0.09249,-0.54744 -0.207418,-1.060695 -0.351439,-1.569488 -0.01599,-0.05648 -0.02907,-0.10438 -0.02907,-0.106445 0,-0.0064 0.03122,-0.0045 0.03374,0.0021 0.0012,0.0032 0.0037,0.0049 0.0056,0.0038 0.0037,-0.0023 0.0154,0.03451 0.01719,0.0541 6.28e-4,0.0069 0.004,0.01775 0.0074,0.02419 0.0035,0.0064 0.0063,0.01435 0.0063,0.01758 1.4e-5,0.0032 0.0035,0.01488 0.0076,0.02591 0.0042,0.01103 0.0066,0.02105 0.0054,0.02228 -0.0035,0.0035 0.0024,0.02271 0.0062,0.02036 0.0019,-0.0011 0.0045,0.0027 0.0059,0.0086 0.0014,0.0059 0.0035,0.01401 0.0047,0.01804 0.0014,0.0048 6.67e-4,0.0064 -0.0021,0.0047 -0.0024,-0.0015 -0.0043,-8.98e-4 -0.0043,0.0013 0,0.0022 0.0024,0.0053 0.0053,0.0071 0.0029,0.0017 0.0066,0.0073 0.0082,0.0124 0.0022,0.007 0.0017,0.0085 -0.0021,0.0062 -0.0036,-0.0022 -0.0043,-0.0012 -0.0024,0.0037 0.0014,0.0038 0.0026,0.0077 0.0026,0.0087 0,0.001 0.0018,7.78e-4 0.0039,-5.5e-4 0.0038,-0.0023 0.0056,0.008 0.004,0.02289 -4.58e-4,0.0043 9.35e-4,0.0062 0.0035,0.0047 0.0039,-0.0024 0.0061,0.0075 0.0046,0.02002 -3.11e-4,0.0025 0.0012,0.0057 0.0034,0.0071 0.0022,0.0014 0.004,0.0073 0.004,0.01319 0,0.0059 0.0015,0.01238 0.0032,0.01442 0.0053,0.006 0.01295,0.03673 0.01027,0.04107 -0.0014,0.0022 3.17e-4,0.0083 0.0037,0.01345 0.0034,0.0052 0.0062,0.01401 0.0062,0.01957 0,0.0056 0.0036,0.01805 0.008,0.02774 0.0044,0.0097 0.009,0.02673 0.01029,0.03787 0.0012,0.01114 0.0045,0.0229 0.0073,0.02613 0.0028,0.0032 0.006,0.0135 0.0071,0.02283 0.0011,0.0093 0.0038,0.01907 0.0059,0.02165 0.0021,0.0026 0.0046,0.01078 0.0054,0.01822 8.2e-4,0.0074 0.0037,0.01757 0.0063,0.02252 0.0026,0.0049 0.0049,0.0146 0.005,0.02145 1.26e-4,0.0068 0.0036,0.02004 0.0078,0.02931 0.0041,0.0093 0.0086,0.02553 0.0098,0.03613 0.0013,0.0106 0.0038,0.01927 0.0057,0.01927 0.0019,0 0.0024,0.0041 0.0011,0.0092 -0.0014,0.0055 -1.04e-4,0.01142 0.0031,0.01465 0.0065,0.0066 0.01797,0.05041 0.0205,0.07871 0.0019,0.0209 0.01546,0.07285 0.02733,0.10447 0.0036,0.0097 0.0075,0.02725 0.0087,0.03906 0.0011,0.01182 0.0044,0.02518 0.0072,0.0297 0.006,0.0096 0.0097,0.02728 0.01113,0.05365 6.01e-4,0.01076 0.0034,0.02032 0.0064,0.0222 0.0032,0.002 0.0051,0.0093 0.0049,0.01821 -2.71e-4,0.0082 0.0022,0.01908 0.0055,0.02416 0.0033,0.0051 0.0063,0.01601 0.0067,0.02428 4.25e-4,0.0083 0.002,0.01626 0.0035,0.01777 0.0015,0.0015 0.0028,0.01167 0.0028,0.0226 5.3e-5,0.02253 0.0086,0.05833 0.01609,0.06735 0.0028,0.0033 0.0053,0.01685 0.0056,0.03005 7.71e-4,0.03015 8.96e-4,0.03081 0.0053,0.02807 0.0046,-0.0029 0.0098,0.02895 0.0089,0.05453 -7.76e-4,0.02166 0.002,0.03434 0.0068,0.03137 0.0047,-0.0029 0.0083,0.0199 0.006,0.03837 -0.0013,0.01026 -8.18e-4,0.01351 0.0012,0.0089 0.0046,-0.01038 0.01652,0.07246 0.01379,0.09549 -0.0015,0.0126 -4.65e-4,0.01949 0.0035,0.02345 0.0067,0.0067 0.01619,0.07053 0.01529,0.103235 -7.73e-4,0.02786 0.0029,0.05353 0.0072,0.05085 0.0017,-0.0011 0.0051,0.01871 0.0076,0.04393 0.0025,0.02521 0.0051,0.04974 0.0058,0.0545 6.76e-4,0.0048 -7.13e-4,0.0093 -0.0031,0.0101 -0.0031,0.001 -0.0031,0.0041 2.14e-4,0.01088 0.0074,0.01549 0.0091,0.0231 0.0051,0.0231 -0.0049,0 -0.0049,0.01294 -2.5e-5,0.01782 0.0021,0.0021 0.0065,0.03266 0.0099,0.06797 0.0034,0.03532 0.007,0.06503 0.008,0.06603 0.0096,0.0096 -0.02911,-0.350523 -0.05648,-0.524874 -0.0374,-0.238206 -0.1039,-0.525861 -0.223515,-0.966797 -0.04163,-0.153463 -0.12571,-0.447167 -0.134773,-0.470783 -0.002,-0.0051 0.357166,-0.0058 3.048982,-0.0058 h 3.051199 v 2.658203 2.658204 H 63.73395 60.940981 Z m -0.06868,-2.876734 c -0.0017,-0.01999 -0.0039,-0.03202 -0.0047,-0.02673 -0.0019,0.01198 0.0031,0.06787 0.0059,0.06511 0.0011,-0.0011 6e-4,-0.01838 -0.0011,-0.03838 z m -0.01724,-0.280493 c -0.0024,-0.01463 -0.003,-0.0155 -0.0034,-0.0052 -4.45e-4,0.01129 0.003,0.02669 0.0054,0.02392 5.36e-4,-6.29e-4 -3.4e-4,-0.0091 -0.0019,-0.01872 z m -0.01133,-0.135619 c -0.0036,-0.0061 -0.0041,-0.0057 -0.0042,0.0031 -6.6e-5,0.0055 0.0012,0.01142 0.0028,0.01305 0.0047,0.0047 0.0058,-0.0085 0.0014,-0.01618 z"
     id="path54" />
  <path
     style="fill:#000000;fill-opacity:1;stroke-width:0.0078125"
     d="m 20.226551,78.642647 c -0.143181,-0.297108 -0.340431,-0.71244 -0.544524,-1.146553 -0.365921,-0.77833 -0.498381,-1.04523 -0.703726,-1.417969 -0.880638,-1.598519 -1.951992,-2.919621 -3.181426,-3.923059 -0.239777,-0.195702 -0.480122,-0.37252 -0.83157,-0.611775 -0.306728,-0.20881 -0.64681,-0.455665 -0.82468,-0.598609 -0.06211,-0.04992 -0.170996,-0.159526 -0.158469,-0.159526 0.005,0 0.01124,0.0035 0.01385,0.0077 0.0069,0.01115 0.223144,0.178918 0.359459,0.278867 0.237664,0.174259 0.432142,0.305681 0.523437,0.353722 0.388028,0.204188 0.908362,0.579441 1.359375,0.980352 1.450579,1.289435 2.715463,3.147807 3.677379,5.40282 0.148789,0.348804 0.387615,0.957141 0.379104,0.965653 -0.0018,0.0018 -0.03248,-0.05744 -0.06821,-0.1316 z"
     id="path55" />
  <path
     style="fill:#000000;fill-opacity:1;stroke-width:0.00552427"
     d="m 28.350563,84.771999 c -0.184518,-0.01183 -0.193854,-0.01356 -0.546903,-0.101428 -1.386761,-0.34512 -2.561574,-0.81556 -3.616783,-1.448298 -0.485499,-0.291121 -0.966435,-0.638833 -1.396494,-1.009652 -0.314298,-0.271003 -0.682771,-0.63678 -0.963351,-0.9563 -0.32047,-0.364947 -0.591535,-0.729774 -0.800238,-1.077041 -0.105509,-0.17556 -0.275782,-0.481538 -0.270763,-0.486557 0.0014,-0.0014 0.02195,0.03039 0.04558,0.07072 0.258297,0.440837 0.615938,0.938264 0.976451,1.3581 0.616872,0.718383 1.311162,1.329687 2.117175,1.864118 0.743046,0.49268 1.564412,0.901871 2.436204,1.213676 0.685101,0.245033 1.369879,0.42546 2.173801,0.572756 0.07338,0.01345 0.05625,0.01343 -0.154679,-9.4e-5 z"
     id="path56" />
  <path
     style="fill:#000000;fill-opacity:1;stroke-width:0.00552427"
     d="m 23.141174,91.055616 c -2.408705,-1.511295 -4.559882,-3.123556 -6.651635,-4.985259 -0.739898,-0.658524 -1.312714,-1.20081 -2.085,-1.973874 l -0.491661,-0.492155 0.0706,-0.0015 0.0706,-0.0015 0.276198,0.278638 c 1.681986,1.696846 3.512459,3.31361 5.286412,4.669217 1.086216,0.830058 2.263443,1.637069 3.516199,2.41042 0.124572,0.0769 0.233953,0.144451 0.243068,0.150113 l 0.01657,0.01029 -0.07458,-8.8e-5 -0.07458,-8.7e-5 z"
     id="path57" />
  <path
     style="fill:#000000;fill-opacity:1;stroke-width:0.015625"
     d="m 33.976562,95.98254 c -0.353184,-0.03664 -0.537778,-0.07498 -0.818581,-0.170048 -3.226962,-1.092469 -6.579683,-2.665261 -9.569019,-4.488913 -0.282718,-0.172473 -0.296728,-0.183221 -0.244543,-0.187611 0.04716,-0.004 0.104993,0.02516 0.390625,0.196748 1.845565,1.108675 3.885999,2.163805 5.874331,3.03768 1.393628,0.612502 3.078656,1.256752 3.686713,1.40957 1.447132,0.363697 2.461037,0.03068 3.028838,-0.994806 0.223038,-0.402823 0.257765,-0.661284 0.28446,-2.117118 0.02948,-1.60764 0.01089,-8.057293 -0.02348,-8.146859 -0.01127,-0.02938 0.03415,-0.03587 -0.890596,0.127361 -0.866446,0.152943 -1.100768,0.187721 -1.254763,0.186228 -0.10339,-0.001 -0.06248,-0.0097 0.291957,-0.06193 0.553748,-0.08163 1.584324,-0.267594 1.872963,-0.337973 l 0.03516,-0.0086 1.74e-4,1.372787 c 1.68e-4,1.324561 0.0126,2.759493 0.0466,5.3806 0.02759,2.126358 0.02686,2.591526 -0.0043,2.78125 -0.135192,0.822417 -0.560666,1.444259 -1.212933,1.772736 -0.166374,0.08378 -0.452194,0.175035 -0.66654,0.212798 -0.180553,0.03181 -0.6646,0.05292 -0.827042,0.03607 z"
     id="path58" />
  <path
     style="fill:#000000;fill-opacity:1;stroke-width:0.00390625"
     d="m 34.25,84.833752 c 0.04619,-0.0061 0.150336,-0.02016 0.231433,-0.03118 0.0811,-0.01102 0.149456,-0.01936 0.15191,-0.01854 0.0025,8.18e-4 -0.02874,0.0063 -0.06932,0.01226 -0.08849,0.01292 -0.168237,0.02733 -0.17198,0.03107 -0.0068,0.0068 0.0077,0.0085 0.06826,0.008 0.124976,-0.001 0.263346,-0.01905 0.673724,-0.0878 0.115608,-0.01937 0.212028,-0.0346 0.214267,-0.03386 0.0046,0.0015 -0.148051,0.02918 -0.318995,0.05781 -0.136091,0.02279 -0.261238,0.04168 -0.399507,0.06031 l -0.102631,0.01383 -0.180572,-4.03e-4 -0.180571,-4.03e-4 z"
     id="path59" />
  <path
     style="fill:#000000;fill-opacity:1;stroke-width:0.0110485"
     d="m 30.9083,78.785293 c -1.873072,-0.07428 -3.536285,-0.628006 -4.988417,-1.660781 -1.148828,-0.81706 -2.157752,-1.921269 -3.023635,-3.309193 -0.06066,-0.09723 -0.175217,-0.286223 -0.254576,-0.41999 -0.227498,-0.383467 -0.492373,-0.771802 -0.751714,-1.102093 -0.106192,-0.135242 -0.135954,-0.193581 -0.03976,-0.07793 0.199479,0.239824 0.543118,0.718642 0.954028,1.329322 0.652289,0.96941 1.030795,1.469989 1.562235,2.066078 0.161164,0.180769 0.629896,0.652223 0.79449,0.799102 0.951515,0.849111 1.954251,1.430611 3.17856,1.843289 0.570364,0.192253 1.15265,0.319452 1.78434,0.389786 0.657133,0.07317 1.518725,0.08181 2.208117,0.02214 1.280493,-0.110827 2.565259,-0.416599 3.708663,-0.882657 0.09353,-0.03812 0.768981,-0.324829 0.780226,-0.331178 8.73e-4,-4.94e-4 0.03732,-0.202257 0.081,-0.448363 0.09612,-0.541655 0.147775,-0.797017 0.220132,-1.088282 0.358393,-1.442681 1.040026,-2.940203 1.790328,-3.933281 0.136639,-0.180851 0.164066,-0.214013 0.391147,-0.47292 0.182911,-0.208547 0.381028,-0.454191 0.410597,-0.509097 0.01418,-0.02634 0.01763,-0.04327 0.01029,-0.05061 -0.0061,-0.0061 -0.147604,-0.03327 -0.314527,-0.06045 -0.265026,-0.04316 -0.486609,-0.07678 -1.308917,-0.198588 -0.127095,-0.01883 -0.160346,-0.02653 -0.118314,-0.02741 0.03215,-6.72e-4 0.146506,0.01103 0.254116,0.02601 0.268976,0.03744 0.657554,0.0875 0.941431,0.121279 0.30747,0.03659 0.726075,0.0835 0.745019,0.0835 0.0081,0 -0.103112,0.118081 -0.247223,0.262403 -0.414376,0.414982 -0.682949,0.743714 -1.015886,1.243441 -0.230472,0.345931 -0.398864,0.639181 -0.607197,1.057418 -0.573304,1.150928 -0.967426,2.485622 -1.161954,3.934957 l -0.01283,0.09559 -0.09016,0.04129 c -0.614463,0.281366 -1.367043,0.557081 -2.067853,0.757577 -1.292481,0.369769 -2.638286,0.546177 -3.811748,0.499643 z"
     id="path60" />
  <path
     style="fill:#000000;fill-opacity:1;stroke-width:0.0110485"
     d="m 12.92078,69.605711 c -0.05175,-0.07253 -0.05246,-0.07468 -0.05777,-0.176083 -0.0038,-0.07224 1.9e-5,-0.126814 0.01282,-0.184202 0.01912,-0.08571 0.06874,-0.205552 0.08033,-0.193971 0.0037,0.0037 -0.0051,0.03305 -0.01957,0.06513 -0.02386,0.0528 -0.02631,0.07303 -0.02585,0.213021 4.82e-4,0.145516 0.0026,0.16023 0.03522,0.24836 0.01909,0.05153 0.03302,0.09537 0.03097,0.09742 -0.0021,0.0021 -0.02732,-0.0293 -0.05614,-0.06968 z"
     id="path61" />
  <path
     style="fill:#000000;fill-opacity:1;stroke-width:0.0110485"
     d="m 13.136718,68.832403 c 0,-0.0031 0.03104,-0.0284 0.06897,-0.05632 0.378471,-0.278614 1.004617,-0.428026 1.770614,-0.422508 l 0.232019,0.0017 -0.207177,0.0084 c -0.801127,0.03238 -1.479147,0.195317 -1.794897,0.431326 -0.05573,0.04165 -0.06953,0.04909 -0.06953,0.03745 z"
     id="path62" />
  <path
     style="fill:#000000;fill-opacity:1;stroke-width:0.0110485"
     d="M 7.3499118,75.038945 C 6.6281077,73.872926 5.8305462,72.428078 5.1863485,71.119474 4.2238532,69.16429 3.4512213,67.2994 2.7241043,65.176392 L 2.6185048,64.868066 v -2.36266 -2.36266 l 8.9410342,2.32e-4 8.941033,2.31e-4 0.07056,0.135113 c 0.339913,0.650932 0.899916,1.551898 1.289068,2.073931 1.120114,1.502589 3.047287,3.369651 4.407716,4.270234 0.403997,0.267439 0.838483,0.533677 1.262519,0.773628 l 0.234298,0.132583 1.3e-4,3.825558 1.31e-4,3.825558 h -1.876432 -1.876431 l -0.159996,-0.201636 c -0.338297,-0.426343 -0.593879,-0.780954 -0.989412,-1.372782 -0.39885,-0.596788 -0.740742,-1.074804 -0.975929,-1.364495 -0.317397,-0.390952 -1.343482,-1.432445 -1.888926,-1.917291 -0.375048,-0.33338 -0.544805,-0.464885 -0.855212,-0.6625 -1.107168,-0.704863 -2.411185,-1.168366 -3.641546,-1.294358 -0.232431,-0.0238 -0.836383,-0.02723 -1.038563,-0.0059 -0.925117,0.09764 -1.510772,0.424517 -1.602532,0.894439 -0.01609,0.08242 -0.0092,0.26202 0.01163,0.301179 0.0396,0.0746 0.276193,0.364823 0.508791,0.624133 0.232013,0.258657 0.638142,0.676225 0.736881,0.757635 0.189108,0.155921 0.504131,0.384758 0.941854,0.684178 1.022725,0.699584 1.888343,1.532773 2.70869,2.607209 0.185684,0.243196 0.570184,0.793458 0.654291,0.936364 0.0065,0.01104 -1.094218,0.01381 -5.488452,0.01381 H 7.4371142 Z"
     id="path64" />
  <path
     style="fill:#000000;fill-opacity:1;stroke-width:0.00390625"
     d="m 12.957134,69.063059 c -8e-5,-0.01176 -0.0014,-0.01457 -0.006,-0.01282 -0.0032,0.0012 -0.0059,0.0012 -0.0059,-2.8e-5 0,-0.0062 0.05286,-0.08173 0.07886,-0.112713 0.04354,-0.05189 0.109784,-0.115051 0.111643,-0.106445 8.13e-4,0.0038 0.0049,0.0068 0.0091,0.0068 0.0052,0 -0.0029,0.0093 -0.02618,0.03003 -0.05876,0.05228 -0.113917,0.120943 -0.146894,0.182861 l -0.01456,0.02734 z"
     id="path65" />
  <path
     style="fill:#000000;fill-opacity:1;stroke-width:0.00390625"
     d="m 20.123047,70.46007 c -0.07998,-0.06764 -0.247311,-0.201578 -0.347656,-0.278268 -1.255993,-0.959907 -2.615598,-1.549739 -4.042969,-1.753944 -0.216763,-0.03101 -0.464289,-0.05651 -0.605469,-0.06238 -0.05883,-0.0024 -0.06361,-0.003 -0.0293,-0.0037 0.02256,-4.15e-4 0.05859,-0.0024 0.08008,-0.0044 0.04217,-0.0039 0.100403,-0.0012 0.257813,0.01185 0.362785,0.03016 0.732656,0.09304 1.113281,0.189274 1.047372,0.264807 1.996932,0.692585 2.857422,1.287273 0.09257,0.06398 0.247287,0.189764 0.460937,0.374755 0.07942,0.06877 0.2577,0.228174 0.302735,0.270689 0.04157,0.03924 0.01735,0.02313 -0.04687,-0.03119 z"
     id="path66" />
  <path
     style="fill:#000000;fill-opacity:1;stroke-width:0.00390625"
     d="M 5.0029169,70.934341 C 4.2817137,69.453207 3.6790695,68.052071 3.1191793,66.554687 3.017347,66.282345 2.8164063,65.729562 2.8164063,65.721767 c 0,-7.26e-4 0.019766,-8.23e-4 0.043925,-2.15e-4 l 0.043925,0.0011 0.026778,0.07617 c 0.2126475,0.604884 0.5166259,1.405987 0.7759457,2.044922 0.4198654,1.034502 0.8427015,1.985784 1.3296965,2.991505 0.052875,0.109195 0.096136,0.199282 0.096136,0.200195 0,9.12e-4 -0.018018,0.0016 -0.040039,0.0014 l -0.040039,-2.28e-4 z"
     id="path67" />
  <path
     style="fill:#000000;fill-opacity:1;stroke-width:0.00552427"
     d="M 9.641231,78.567574 C 7.9963139,76.343657 6.5477743,73.993679 5.2910987,71.510316 L 5.1366478,71.2051 h 0.040545 0.040545 l 0.1123088,0.225114 c 0.2852117,0.571684 0.6435113,1.249436 0.9714356,1.837547 1.0300732,1.847368 2.135768,3.560196 3.3947045,5.258725 0.078398,0.105772 0.1425408,0.193401 0.1425408,0.194731 0,0.0013 -0.018465,0.0024 -0.041033,0.0024 h -0.041033 z"
     id="path68" />
  <path
     style="fill:#000000;fill-opacity:1;stroke-width:0.0078125"
     d="m 12.563497,16.248298 c 0.0059,-0.0074 0.08069,-0.09088 0.166214,-0.185547 1.158217,-1.282116 2.463689,-2.578056 3.754664,-3.727249 1.292388,-1.150451 2.638326,-2.228594 4.021186,-3.22111 l 0.165717,-0.1189398 0.06348,0.00227 L 20.798238,9 20.623728,9.1244639 c -2.805892,2.0012221 -5.434512,4.3380111 -7.767144,6.9048331 l -0.211217,0.232422 h -0.0463 c -0.04272,0 -0.04547,-10e-4 -0.03557,-0.01342 z"
     id="path69" />
</svg>
